<?xml version="1.0" encoding="UTF-8" standalone="no"?>
<svg
   fill="hsl(200, 100%, 20%)"
   viewBox="0 0 640 512"
   version="1.1"
   id="svg32993"
   sodipodi:docname="cloud-sun.svg"
   xml:space="preserve"
   inkscape:version="1.2.2 (b0a8486, 2022-12-01)"
   xmlns:inkscape="http://www.inkscape.org/namespaces/inkscape"
   xmlns:sodipodi="http://sodipodi.sourceforge.net/DTD/sodipodi-0.dtd"
   xmlns="http://www.w3.org/2000/svg"
   xmlns:svg="http://www.w3.org/2000/svg"><defs
     id="defs32997"><filter
       inkscape:menu="Shadows and Glows"
       inkscape:menu-tooltip="In and out glow with a possible offset and colorizable flood"
       style="color-interpolation-filters:sRGB;"
       inkscape:label="Cutout Glow"
       id="filter2744"
       x="-0.37317678"
       y="-0.53310969"
       width="1.7557286"
       height="2.0796122"><feColorMatrix
         values="0 0 0 0 0 0 0 0 0 0 0 0 0 0 0 0.20999999999999999 0.71999999999999997 0.070000000000000007 0 0"
         result="result1"
         id="feColorMatrix2716" /><feColorMatrix
         values="1 0 0 0 0 0 1 0 0 0 0 0 1 0 0 0 0 0 2 0"
         result="result9"
         id="feColorMatrix2718" /><feComposite
         in2="result9"
         in="SourceGraphic"
         operator="in"
         result="result4"
         id="feComposite2720" /><feFlood
         result="result2"
         flood-color="rgb(0,0,0)"
         id="feFlood2722" /><feComposite
         in2="result9"
         operator="in"
         result="result10"
         id="feComposite2724" /><feComposite
         in2="result4"
         operator="atop"
         id="feComposite2726" /><feGaussianBlur
         stdDeviation="96.513813"
         result="result8"
         id="feGaussianBlur2728" /><feOffset
         dx="3"
         dy="3"
         result="result3"
         in="result8"
         id="feOffset2730" /><feFlood
         flood-opacity="1"
         flood-color="rgb(219,173,62)"
         result="result5"
         id="feFlood2732" /><feMerge
         result="result6"
         id="feMerge2740"><feMergeNode
           in="result5"
           id="feMergeNode2734" /><feMergeNode
           in="result3"
           id="feMergeNode2736" /><feMergeNode
           in="result4"
           id="feMergeNode2738" /></feMerge><feComposite
         in2="SourceGraphic"
         operator="in"
         result="fbSourceGraphic"
         id="feComposite2742" /><feColorMatrix
         result="fbSourceGraphicAlpha"
         in="fbSourceGraphic"
         values="0 0 0 -1 0 0 0 0 -1 0 0 0 0 -1 0 0 0 0 1 0"
         id="feColorMatrix2754" /><feOffset
         id="feOffset2756"
         dy="3"
         dx="3"
         in="fbSourceGraphic" /><feGaussianBlur
         id="feGaussianBlur2758"
         stdDeviation="3"
         result="blur" /><feFlood
         id="feFlood2760"
         flood-color="rgb(0,0,0)"
         flood-opacity="1"
         result="flood" /><feComposite
         in2="fbSourceGraphic"
         id="feComposite2762"
         in="flood"
         operator="in"
         result="composite" /><feBlend
         in2="composite"
         id="feBlend2764"
         in="blur"
         mode="normal" /></filter><filter
       inkscape:label="Metal Casting"
       inkscape:menu="Bevels"
       inkscape:menu-tooltip="Smooth drop-like bevel with metallic finish"
       style="color-interpolation-filters:sRGB;"
       id="filter1976"
       x="-0.026250002"
       y="-0.037500003"
       width="1.0525"
       height="1.075"
       inkscape:auto-region="false"><feColorMatrix
         type="saturate"
         in="SourceGraphic"
         result="result1"
         id="feColorMatrix1966"
         values="0.48883711132325436" /><feGaussianBlur
         stdDeviation="34.593613459346507"
         in="SourceAlpha"
         id="feGaussianBlur1968" /><feSpecularLighting
         specularExponent="8"
         specularConstant="3.9152500219178616"
         surfaceScale="3.2846649169921864"
         id="feSpecularLighting1972"><feDistantLight
           azimuth="58"
           elevation="17"
           id="feDistantLight1970" /></feSpecularLighting><feComposite
         in2="result1"
         operator="atop"
         id="feComposite1974" /></filter></defs><sodipodi:namedview
     id="namedview32995"
     pagecolor="#ffffff"
     bordercolor="#999999"
     borderopacity="1"
     inkscape:showpageshadow="0"
     inkscape:pageopacity="0"
     inkscape:pagecheckerboard="0"
     inkscape:deskcolor="#d1d1d1"
     showgrid="false"
     inkscape:zoom="0.84179688"
     inkscape:cx="105.13225"
     inkscape:cy="346.87703"
     inkscape:window-width="1920"
     inkscape:window-height="1052"
     inkscape:window-x="0"
     inkscape:window-y="0"
     inkscape:window-maximized="1"
     inkscape:current-layer="svg32993" /><!--! Font Awesome Pro 6.2.1 by @fontawesome - https://fontawesome.com License - https://fontawesome.com/license (Commercial License) Copyright 2022 Fonticons, Inc. --><path
     d="m 122.4,1.2 c 5.2,-2.1 11,-1.4 15.5,1.8 L 208.2,53.3 278.5,3 c 4.5,-3.2 10.3,-3.9 15.4,-1.8 5.1,2.1 8.8,6.7 9.7,12.2 l 14.1,85.3 85.3,14.1 c 5.4,0.9 10.1,4.6 12.2,9.7 2.1,5.1 1.4,10.9 -1.8,15.4 l -38.8,54.3 c -2.2,-0.1 -4.3,-0.2 -6.5,-0.2 -23.2,0 -45,6.2 -63.8,17 0.1,-12.5 -2.2,-25.3 -7.3,-37.6 -20.3,-49 -76.4,-72.2 -125.4,-52 -49,20.2 -72.2,76.4 -52,125.4 18.3,44.3 66,67.5 111.1,56.6 -36.3,18.2 -62.8,53.3 -69.1,94.9 L 138,413.2 c -4.5,3.2 -10.3,3.9 -15.4,1.8 -5.1,-2.1 -8.8,-6.7 -9.7,-12.2 L 98.7,317.7 13.4,303.6 C 7.9,302.7 3.3,299 1.2,293.9 -0.9,288.8 -0.2,282.9 3,278.5 L 53.3,208.2 3,137.9 c -3.2,-4.5 -3.9,-10.3 -1.8,-15.4 2.1,-5.1 6.7,-8.8 12.2,-9.7 L 98.7,98.7 112.8,13.4 c 0.9,-5.5 4.6,-10.1 9.7,-12.2 z M 149,232.7 c -13.5,-32.7 2,-70.1 34.6,-83.6 32.6,-13.5 70.1,2 83.6,34.6 13.5,32.6 -2,70.1 -34.6,83.6 -32.6,13.5 -70.1,-2 -83.6,-34.6 z m 490.9,199.2 c 0,44.2 -35.8,80 -80,80 H 288 c -53,0 -96,-43 -96,-96 0,-47.6 34.6,-87 80,-94.6 V 320 c 0,-53 43,-96 96,-96 34.9,0 65.4,18.6 82.2,46.4 13,-9.1 28.8,-14.4 45.8,-14.4 44.2,0 80,35.8 80,80 0,5.9 -0.6,11.7 -1.9,17.2 37.4,6.7 65.8,39.4 65.8,78.7 z"
     id="path32991"
     style="display:inline;fill:#966452;fill-opacity:1;filter:url(#filter1976)" /></svg>
