<?xml version="1.0" encoding="UTF-8" standalone="no"?>
<svg
   fill="hsl(200, 100%, 20%)"
   viewBox="0 0 640 512"
   version="1.1"
   id="svg32993"
   sodipodi:docname="cloud-sun.svg"
   xml:space="preserve"
   inkscape:version="1.2.2 (b0a8486, 2022-12-01)"
   xmlns:inkscape="http://www.inkscape.org/namespaces/inkscape"
   xmlns:sodipodi="http://sodipodi.sourceforge.net/DTD/sodipodi-0.dtd"
   xmlns="http://www.w3.org/2000/svg"
   xmlns:svg="http://www.w3.org/2000/svg"><defs
     id="defs32997"><filter
       inkscape:menu="Shadows and Glows"
       inkscape:menu-tooltip="In and out glow with a possible offset and colorizable flood"
       style="color-interpolation-filters:sRGB;"
       inkscape:label="Cutout Glow"
       id="filter2744"
       x="-0.37317678"
       y="-0.53310969"
       width="1.7557286"
       height="2.0796122"><feColorMatrix
         values="0 0 0 0 0 0 0 0 0 0 0 0 0 0 0 0.20999999999999999 0.71999999999999997 0.070000000000000007 0 0"
         result="result1"
         id="feColorMatrix2716" /><feColorMatrix
         values="1 0 0 0 0 0 1 0 0 0 0 0 1 0 0 0 0 0 2 0"
         result="result9"
         id="feColorMatrix2718" /><feComposite
         in2="result9"
         in="SourceGraphic"
         operator="in"
         result="result4"
         id="feComposite2720" /><feFlood
         result="result2"
         flood-color="rgb(0,0,0)"
         id="feFlood2722" /><feComposite
         in2="result9"
         operator="in"
         result="result10"
         id="feComposite2724" /><feComposite
         in2="result4"
         operator="atop"
         id="feComposite2726" /><feGaussianBlur
         stdDeviation="96.513813"
         result="result8"
         id="feGaussianBlur2728" /><feOffset
         dx="3"
         dy="3"
         result="result3"
         in="result8"
         id="feOffset2730" /><feFlood
         flood-opacity="1"
         flood-color="rgb(219,173,62)"
         result="result5"
         id="feFlood2732" /><feMerge
         result="result6"
         id="feMerge2740"><feMergeNode
           in="result5"
           id="feMergeNode2734" /><feMergeNode
           in="result3"
           id="feMergeNode2736" /><feMergeNode
           in="result4"
           id="feMergeNode2738" /></feMerge><feComposite
         in2="SourceGraphic"
         operator="in"
         result="fbSourceGraphic"
         id="feComposite2742" /><feColorMatrix
         result="fbSourceGraphicAlpha"
         in="fbSourceGraphic"
         values="0 0 0 -1 0 0 0 0 -1 0 0 0 0 -1 0 0 0 0 1 0"
         id="feColorMatrix2754" /><feOffset
         id="feOffset2756"
         dy="3"
         dx="3"
         in="fbSourceGraphic" /><feGaussianBlur
         id="feGaussianBlur2758"
         stdDeviation="3"
         result="blur" /><feFlood
         id="feFlood2760"
         flood-color="rgb(0,0,0)"
         flood-opacity="1"
         result="flood" /><feComposite
         in2="fbSourceGraphic"
         id="feComposite2762"
         in="flood"
         operator="in"
         result="composite" /><feBlend
         in2="composite"
         id="feBlend2764"
         in="blur"
         mode="normal" /></filter><filter
       inkscape:label="Metal Casting"
       inkscape:menu="Bevels"
       inkscape:menu-tooltip="Smooth drop-like bevel with metallic finish"
       style="color-interpolation-filters:sRGB;"
       id="filter1976"
       x="-0.026250002"
       y="-0.037500003"
       width="1.0525"
       height="1.075"
       inkscape:auto-region="false"><feColorMatrix
         type="saturate"
         in="SourceGraphic"
         result="result1"
         id="feColorMatrix1966"
         values="0.48883711132325436" /><feGaussianBlur
         stdDeviation="34.593613459346507"
         in="SourceAlpha"
         id="feGaussianBlur1968" /><feSpecularLighting
         specularExponent="8"
         specularConstant="3.9152500219178616"
         surfaceScale="3.2846649169921864"
         id="feSpecularLighting1972"><feDistantLight
           azimuth="58"
           elevation="17"
           id="feDistantLight1970" /></feSpecularLighting><feComposite
         in2="result1"
         operator="atop"
         id="feComposite1974" /></filter></defs><sodipodi:namedview
     id="namedview32995"
     pagecolor="#ffffff"
     bordercolor="#999999"
     borderopacity="1"
     inkscape:showpageshadow="0"
     inkscape:pageopacity="0"
     inkscape:pagecheckerboard="0"
     inkscape:deskcolor="#d1d1d1"
     showgrid="false"
     inkscape:zoom="0.59524028"
     inkscape:cx="-334.31877"
     inkscape:cy="374.63862"
     inkscape:window-width="1920"
     inkscape:window-height="1012"
     inkscape:window-x="1920"
     inkscape:window-y="0"
     inkscape:window-maximized="1"
     inkscape:current-layer="svg32993" /><!--! Font Awesome Pro 6.2.1 by @fontawesome - https://fontawesome.com License - https://fontawesome.com/license (Commercial License) Copyright 2022 Fonticons, Inc. --><path
     d="M122.4 1.2C127.6-.9 133.4-.2 137.9 3l70.3 50.3L278.5 3c4.5-3.2 10.3-3.9 15.4-1.8s8.8 6.7 9.7 12.2l14.1 85.3L403 112.8c5.4 .9 10.1 4.6 12.2 9.7s1.4 10.9-1.8 15.4l-38.8 54.3c-2.2-.1-4.3-.2-6.5-.2c-23.2 0-45 6.2-63.8 17c.1-12.5-2.2-25.3-7.3-37.6c-20.3-49-76.4-72.2-125.4-52s-72.2 76.4-52 125.4c18.3 44.3 66 67.5 111.1 56.6c-36.3 18.2-62.8 53.3-69.1 94.9l-23.6 16.9c-4.5 3.2-10.3 3.9-15.4 1.8s-8.8-6.7-9.7-12.2L98.7 317.7 13.4 303.6c-5.5-.9-10.1-4.6-12.2-9.7S-.2 282.9 3 278.5l50.3-70.3L3 137.9c-3.2-4.5-3.9-10.3-1.8-15.4s6.7-8.8 12.2-9.7L98.7 98.7l14.1-85.3c.9-5.5 4.6-10.1 9.7-12.2zM149 232.7c-13.5-32.7 2-70.1 34.6-83.6s70.1 2 83.6 34.6s-2 70.1-34.6 83.6s-70.1-2-83.6-34.6zM639.9 431.9c0 44.2-35.8 80-80 80H288c-53 0-96-43-96-96c0-47.6 34.6-87 80-94.6l0-1.3c0-53 43-96 96-96c34.9 0 65.4 18.6 82.2 46.4c13-9.1 28.8-14.4 45.8-14.4c44.2 0 80 35.8 80 80c0 5.9-.6 11.7-1.9 17.2c37.4 6.7 65.8 39.4 65.8 78.7z"
     id="path32991"
     style="fill:#000000;fill-opacity:1;filter:url(#filter1976)" /></svg>
