<?xml version="1.0" encoding="UTF-8" standalone="no"?>
<svg
   fill="hsl(200, 100%, 20%)"
   viewBox="0 0 512 512"
   version="1.1"
   id="svg4"
   sodipodi:docname="sun_2.svg"
   inkscape:version="1.2.2 (b0a8486, 2022-12-01)"
   xmlns:inkscape="http://www.inkscape.org/namespaces/inkscape"
   xmlns:sodipodi="http://sodipodi.sourceforge.net/DTD/sodipodi-0.dtd"
   xmlns="http://www.w3.org/2000/svg"
   xmlns:svg="http://www.w3.org/2000/svg">
  <defs
     id="defs8">
    <inkscape:path-effect
       effect="offset"
       id="path-effect3871"
       is_visible="true"
       lpeversion="1"
       linejoin_type="miter"
       unit="mm"
       offset="0"
       miter_limit="4"
       attempt_force_join="false"
       update_on_knot_move="true" />
    <inkscape:path-effect
       effect="knot"
       id="path-effect3869"
       is_visible="true"
       lpeversion="1"
       switcher_size="15"
       interruption_width="3"
       prop_to_stroke_width="true"
       add_stroke_width="inkscape_1.0_and_up"
       both="false"
       inverse_width="false"
       add_other_stroke_width="inkscape_1.0_and_up"
       crossing_points_vector="" />
    <inkscape:path-effect
       effect="powerstroke"
       id="path-effect3768"
       is_visible="true"
       lpeversion="1"
       offset_points="2.711731,0.53149517 | 6.7189829,2.1682029 | 11.101524,0.88708737"
       not_jump="false"
       sort_points="true"
       interpolator_type="CentripetalCatmullRom"
       interpolator_beta="0.2"
       start_linecap_type="zerowidth"
       linejoin_type="round"
       miter_limit="4"
       scale_width="1"
       end_linecap_type="zerowidth" />
    <inkscape:path-effect
       effect="powerstroke"
       id="path-effect2451"
       is_visible="true"
       lpeversion="1"
       offset_points="0.63756067,2.8724438 | 0.98511302,4.2374645 | 1.7935987,4.353168"
       not_jump="false"
       sort_points="true"
       interpolator_type="CentripetalCatmullRom"
       interpolator_beta="0.2"
       start_linecap_type="zerowidth"
       linejoin_type="round"
       miter_limit="4"
       scale_width="1"
       end_linecap_type="zerowidth" />
    <inkscape:path-effect
       effect="powerstroke"
       id="path-effect2451-3"
       is_visible="true"
       lpeversion="1"
       offset_points="0.63756067,2.8724438 | 0.98511302,4.2374645 | 1.7935987,4.353168"
       not_jump="false"
       sort_points="true"
       interpolator_type="CentripetalCatmullRom"
       interpolator_beta="0.2"
       start_linecap_type="zerowidth"
       linejoin_type="round"
       miter_limit="4"
       scale_width="1"
       end_linecap_type="zerowidth" />
    <inkscape:path-effect
       effect="powerstroke"
       id="path-effect2451-7"
       is_visible="true"
       lpeversion="1"
       offset_points="0.63756067,2.8724438 | 0.98511302,4.2374645 | 1.7935987,4.353168"
       not_jump="false"
       sort_points="true"
       interpolator_type="CentripetalCatmullRom"
       interpolator_beta="0.2"
       start_linecap_type="zerowidth"
       linejoin_type="round"
       miter_limit="4"
       scale_width="1"
       end_linecap_type="zerowidth" />
    <inkscape:path-effect
       effect="powerstroke"
       id="path-effect2451-7-3"
       is_visible="true"
       lpeversion="1"
       offset_points="0.63756067,2.8724438 | 0.98511302,4.2374645 | 1.7935987,4.353168"
       not_jump="false"
       sort_points="true"
       interpolator_type="CentripetalCatmullRom"
       interpolator_beta="0.2"
       start_linecap_type="zerowidth"
       linejoin_type="round"
       miter_limit="4"
       scale_width="1"
       end_linecap_type="zerowidth" />
    <inkscape:path-effect
       effect="powerstroke"
       id="path-effect2451-6"
       is_visible="true"
       lpeversion="1"
       offset_points="0.63756067,1.4362219 | 0.98511302,2.1187322 | 1.7935987,2.176584"
       not_jump="false"
       sort_points="true"
       interpolator_type="CentripetalCatmullRom"
       interpolator_beta="0.2"
       start_linecap_type="zerowidth"
       linejoin_type="round"
       miter_limit="4"
       scale_width="1"
       end_linecap_type="zerowidth" />
    <inkscape:path-effect
       effect="powerstroke"
       id="path-effect2451-3-2"
       is_visible="true"
       lpeversion="1"
       offset_points="0.63756067,1.4362219 | 0.98511302,2.1187322 | 1.7935987,2.176584"
       not_jump="false"
       sort_points="true"
       interpolator_type="CentripetalCatmullRom"
       interpolator_beta="0.2"
       start_linecap_type="zerowidth"
       linejoin_type="round"
       miter_limit="4"
       scale_width="1"
       end_linecap_type="zerowidth" />
    <inkscape:path-effect
       effect="powerstroke"
       id="path-effect2451-7-9"
       is_visible="true"
       lpeversion="1"
       offset_points="0.63756067,1.4362219 | 0.98511302,2.1187322 | 1.7935987,2.176584"
       not_jump="false"
       sort_points="true"
       interpolator_type="CentripetalCatmullRom"
       interpolator_beta="0.2"
       start_linecap_type="zerowidth"
       linejoin_type="round"
       miter_limit="4"
       scale_width="1"
       end_linecap_type="zerowidth" />
    <inkscape:path-effect
       effect="powerstroke"
       id="path-effect2451-7-3-1"
       is_visible="true"
       lpeversion="1"
       offset_points="0.63715133,3.5512493 | 1.1970924,4.7064077 | 1.7919238,3.8601286"
       not_jump="false"
       sort_points="true"
       interpolator_type="CentripetalCatmullRom"
       interpolator_beta="0.2"
       start_linecap_type="zerowidth"
       linejoin_type="round"
       miter_limit="4"
       scale_width="1"
       end_linecap_type="zerowidth" />
    <inkscape:path-effect
       effect="powerstroke"
       id="path-effect2451-7-3-1-6"
       is_visible="true"
       lpeversion="1"
       offset_points="0.63715133,3.5512493 | 1.1970924,4.7064077 | 1.7919238,3.8601286"
       not_jump="false"
       sort_points="true"
       interpolator_type="CentripetalCatmullRom"
       interpolator_beta="0.2"
       start_linecap_type="zerowidth"
       linejoin_type="round"
       miter_limit="4"
       scale_width="1"
       end_linecap_type="zerowidth" />
    <inkscape:path-effect
       effect="powerstroke"
       id="path-effect2451-7-3-1-6-5"
       is_visible="true"
       lpeversion="1"
       offset_points="0.63715133,3.5512493 | 1.1970924,4.7064077 | 1.7919238,3.8601286"
       not_jump="false"
       sort_points="true"
       interpolator_type="CentripetalCatmullRom"
       interpolator_beta="0.2"
       start_linecap_type="zerowidth"
       linejoin_type="round"
       miter_limit="4"
       scale_width="1"
       end_linecap_type="zerowidth" />
    <inkscape:path-effect
       effect="powerstroke"
       id="path-effect2451-7-3-1-6-5-5"
       is_visible="true"
       lpeversion="1"
       offset_points="0.63715133,3.5512493 | 1.1970924,4.7064077 | 1.7919238,3.8601286"
       not_jump="false"
       sort_points="true"
       interpolator_type="CentripetalCatmullRom"
       interpolator_beta="0.2"
       start_linecap_type="zerowidth"
       linejoin_type="round"
       miter_limit="4"
       scale_width="1"
       end_linecap_type="zerowidth" />
  </defs>
  <sodipodi:namedview
     id="namedview6"
     pagecolor="#ffffff"
     bordercolor="#999999"
     borderopacity="1"
     inkscape:pageshadow="0"
     inkscape:pageopacity="0"
     inkscape:pagecheckerboard="0"
     showgrid="false"
     showguides="false"
     inkscape:guide-bbox="true"
     inkscape:zoom="1.1490485"
     inkscape:cx="85.7231"
     inkscape:cy="254.1233"
     inkscape:window-width="1920"
     inkscape:window-height="1052"
     inkscape:window-x="0"
     inkscape:window-y="0"
     inkscape:window-maximized="1"
     inkscape:current-layer="svg4"
     inkscape:showpageshadow="0"
     inkscape:deskcolor="#d1d1d1">
    <sodipodi:guide
       position="257.07692,430.15385"
       orientation="1,0"
       id="guide2738"
       inkscape:locked="false" />
    <sodipodi:guide
       position="137.23077,259.07692"
       orientation="0,-1"
       id="guide3286"
       inkscape:locked="false" />
  </sodipodi:namedview>
  <!--! Font Awesome Pro 6.2.1 by @fontawesome - https://fontawesome.com License - https://fontawesome.com/license (Commercial License) Copyright 2022 Fonticons, Inc. -->
  <g
     inkscape:groupmode="layer"
     id="layer1"
     inkscape:label="second version of rays"
     style="display:inline">
    <g
       id="g1318"
       transform="translate(-417.65336,1.1442683)"
       style="display:none"
       inkscape:label="first version of rays"
       sodipodi:insensitive="true">
      <path
         style="fill:#ffcc00;fill-rule:nonzero;stroke:none;stroke-width:6.71143;stroke-linecap:round;stroke-linejoin:miter;stroke-miterlimit:4;stroke-dasharray:none;stroke-opacity:1"
         d="m 255.66258,12.215237 c -0.85493,1.550334 -2.09468,4.101501 -3.36932,8.053029 -0.90352,2.801008 -1.761,6.107015 -2.51375,9.964674 -1.40856,7.218585 -2.22048,15.191835 -2.51179,22.98872 -0.18296,4.896921 -0.1446,9.279613 -0.009,12.917074 0.14129,3.786976 0.37345,7.139726 0.64999,9.981196 0.33987,3.492041 0.80624,6.842346 1.4672,9.962835 0.5014,2.367159 1.18907,4.953532 2.14478,7.393801 0.11492,0.293433 0.23469,0.589398 0.35949,0.886254 2.73478,6.66311 5.38552,15.8558 5.86176,26.07933 0.2534,5.43991 -0.13763,9.85528 -0.58606,13.98013 -0.0977,0.89838 -0.19495,1.76519 -0.27343,2.54797 -0.55215,5.50755 -0.61548,11.38879 -1.21997,13.8457 1.94662,-1.8058 6.83574,-5.28406 9.60511,-11.50268 0.38029,-0.85393 0.74437,-1.80371 1.07933,-2.83887 1.48642,-4.5936 2.22619,-10.2806 1.85234,-16.59116 -0.70931,-11.97345 -5.10249,-22.289131 -8.56588,-29.094905 -0.11005,-0.212517 -0.21748,-0.42893 -0.32214,-0.648192 -0.88122,-1.846205 -1.66863,-3.978737 -2.33582,-6.054317 -0.86759,-2.699011 -1.68145,-5.764853 -2.37477,-8.995185 -0.56973,-2.65455 -1.13788,-5.787514 -1.61691,-9.429326 -0.45965,-3.49449 -0.89451,-7.699895 -1.16928,-12.482477 -0.43682,-7.603286 -0.39579,-15.435709 0.22951,-22.626195 0.33361,-3.836183 0.80493,-7.160652 1.35503,-9.999397 0.77639,-4.006471 1.63963,-6.680533 2.26348,-8.338009 z"
         id="path1628"
         sodipodi:nodetypes="csc"
         inkscape:original-d="m 255.66258,12.215237 c -8.71929,18.91355 -7.63598,63.593035 0.0943,80.360342 7.44678,16.152351 11.82151,37.999831 -0.0943,58.240371"
         inkscape:path-effect="#path-effect2451" />
      <path
         style="fill:#ffdd55;fill-rule:nonzero;stroke:none;stroke-width:6.71143;stroke-linecap:round;stroke-linejoin:miter;stroke-miterlimit:4;stroke-dasharray:none;stroke-opacity:1"
         d="m 499.99895,249.90123 c -1.55033,-0.85493 -4.1015,-2.09468 -8.05303,-3.36932 -2.80101,-0.90352 -6.10701,-1.761 -9.96467,-2.51375 -7.21859,-1.40856 -15.19184,-2.22048 -22.98872,-2.51179 -4.89693,-0.18296 -9.27962,-0.1446 -12.91708,-0.009 -3.78698,0.14129 -7.13972,0.37345 -9.98119,0.64999 -3.49204,0.33987 -6.84235,0.80624 -9.96284,1.4672 -2.36716,0.5014 -4.95353,1.18907 -7.3938,2.14478 -0.29343,0.11492 -0.5894,0.23469 -0.88625,0.35949 -6.66311,2.73478 -15.85581,5.38552 -26.07933,5.86176 -5.43991,0.2534 -9.85529,-0.13763 -13.98013,-0.58606 -0.89839,-0.0977 -1.76519,-0.19495 -2.54798,-0.27343 -5.50755,-0.55215 -11.38878,-0.61548 -13.8457,-1.21997 1.8058,1.94662 5.28407,6.83574 11.50268,9.60511 0.85394,0.38029 1.80372,0.74437 2.83887,1.07933 4.5936,1.48642 10.28061,2.22619 16.59116,1.85234 11.97345,-0.70931 22.28914,-5.10249 29.09491,-8.56588 0.21252,-0.11005 0.42893,-0.21748 0.6482,-0.32214 1.8462,-0.88122 3.97873,-1.66863 6.05431,-2.33582 2.69901,-0.86759 5.76485,-1.68145 8.99518,-2.37477 2.65455,-0.56973 5.78752,-1.13788 9.42933,-1.61691 3.49449,-0.45965 7.69989,-0.89451 12.48248,-1.16928 7.60328,-0.43682 15.43571,-0.39579 22.62619,0.22951 3.83619,0.33361 7.16066,0.80493 9.9994,1.35503 4.00647,0.77639 6.68053,1.63963 8.33801,2.26348 z"
         id="path1628-6"
         sodipodi:nodetypes="csc"
         inkscape:original-d="m 499.99895,249.90123 c -18.91355,-8.71929 -63.59304,-7.63598 -80.36034,0.0943 -16.15236,7.44678 -37.99983,11.82151 -58.24038,-0.0943"
         inkscape:path-effect="#path-effect2451-3" />
      <path
         style="fill:#ffd42a;fill-rule:nonzero;stroke:none;stroke-width:6.71143;stroke-linecap:round;stroke-linejoin:miter;stroke-miterlimit:4;stroke-dasharray:none;stroke-opacity:1"
         d="m 255.66258,499.78474 c 0.85493,-1.55033 2.09468,-4.1015 3.36932,-8.05303 0.90352,-2.80101 1.761,-6.10701 2.51375,-9.96467 1.40856,-7.21859 2.22048,-15.19184 2.51179,-22.98872 0.18296,-4.89692 0.1446,-9.27961 0.009,-12.91707 -0.14129,-3.78698 -0.37345,-7.13973 -0.64999,-9.9812 -0.33987,-3.49204 -0.80624,-6.84235 -1.4672,-9.96284 -0.5014,-2.36715 -1.18907,-4.95353 -2.14478,-7.3938 -0.11492,-0.29343 -0.23469,-0.58939 -0.35949,-0.88625 -2.73478,-6.66311 -5.38553,-15.8558 -5.86177,-26.07933 -0.2534,-5.43991 0.13763,-9.85528 0.58607,-13.98012 0.0977,-0.89839 0.19494,-1.7652 0.27342,-2.54798 0.55216,-5.50755 0.61549,-11.38879 1.21998,-13.8457 -1.94662,1.8058 -6.83574,5.28406 -9.60512,11.50268 -0.38028,0.85393 -0.74437,1.80371 -1.07933,2.83887 -1.48641,4.5936 -2.22618,10.2806 -1.85234,16.59116 0.70931,11.97345 5.10249,22.28913 8.56589,29.09491 0.11005,0.21251 0.21748,0.42892 0.32214,0.64819 0.88122,1.8462 1.66863,3.97873 2.33582,6.05431 0.86759,2.69901 1.68145,5.76486 2.37477,8.99519 0.56973,2.65455 1.13788,5.78751 1.61691,9.42933 0.45965,3.49448 0.89451,7.69989 1.16928,12.48247 0.43682,7.60329 0.39579,15.43571 -0.22951,22.62619 -0.33361,3.83619 -0.80493,7.16066 -1.35503,9.9994 -0.77639,4.00647 -1.63963,6.68053 -2.26348,8.33801 z"
         id="path1628-5"
         sodipodi:nodetypes="csc"
         inkscape:original-d="m 255.66258,499.78474 c 8.71929,-18.91355 7.63598,-63.59303 -0.0943,-80.36034 -7.44679,-16.15235 -11.82152,-37.99983 0.0943,-58.24037"
         inkscape:path-effect="#path-effect2451-7" />
      <path
         style="fill:#ffcc00;fill-rule:nonzero;stroke:none;stroke-width:6.71143;stroke-linecap:round;stroke-linejoin:miter;stroke-miterlimit:4;stroke-dasharray:none;stroke-opacity:1"
         d="m 12.001033,249.90123 c 1.550334,0.85493 4.101501,2.09468 8.053029,3.36932 2.801008,0.90352 6.107015,1.761 9.964674,2.51375 7.218585,1.40856 15.191836,2.22048 22.988721,2.51179 4.896921,0.18296 9.279613,0.1446 12.917074,0.009 3.786977,-0.14129 7.139727,-0.37345 9.981197,-0.64999 3.492041,-0.33987 6.842346,-0.80624 9.962835,-1.4672 2.36716,-0.5014 4.953532,-1.18907 7.393802,-2.14478 0.293433,-0.11492 0.589398,-0.23469 0.886254,-0.35949 6.663111,-2.73478 15.855801,-5.38553 26.079331,-5.86177 5.43991,-0.2534 9.85528,0.13763 13.98012,0.58607 0.89839,0.0977 1.7652,0.19494 2.54798,0.27342 5.50755,0.55216 11.38879,0.61549 13.8457,1.21998 -1.8058,-1.94662 -5.28406,-6.83574 -11.50268,-9.60512 -0.85393,-0.38028 -1.80371,-0.74437 -2.83887,-1.07933 -4.5936,-1.48641 -10.2806,-2.22618 -16.59116,-1.85234 -11.97345,0.70931 -22.289133,5.10249 -29.094908,8.56589 -0.212515,0.11005 -0.428928,0.21748 -0.64819,0.32214 -1.846205,0.88122 -3.978737,1.66863 -6.054318,2.33582 -2.69901,0.86759 -5.764853,1.68145 -8.995185,2.37477 -2.654551,0.56973 -5.787515,1.13788 -9.429327,1.61691 -3.49449,0.45965 -7.699895,0.89451 -12.482477,1.16928 -7.603287,0.43682 -15.43571,0.39579 -22.626196,-0.22951 -3.836183,-0.33361 -7.160652,-0.80493 -9.999397,-1.35503 -4.006471,-0.77639 -6.680533,-1.63963 -8.338009,-2.26348 z"
         id="path1628-5-5"
         sodipodi:nodetypes="csc"
         inkscape:original-d="m 12.001033,249.90123 c 18.91355,8.71929 63.593036,7.63598 80.360345,-0.0943 16.152352,-7.44679 37.999832,-11.82152 58.240372,0.0943"
         inkscape:path-effect="#path-effect2451-7-3" />
      <path
         style="fill:#ffb380;fill-rule:nonzero;stroke:none;stroke-width:3.35571;stroke-linecap:round;stroke-linejoin:miter;stroke-miterlimit:4;stroke-dasharray:none;stroke-opacity:1"
         d="m 118.14616,137.72399 c 0.16166,0.90446 0.47772,2.31131 1.25293,4.27627 0.55135,1.39754 1.29647,2.97961 2.28211,4.74228 1.79186,3.20445 4.13832,6.57157 6.74071,9.72546 1.51859,1.8404 3.0316,3.49504 4.4371,4.89422 1.27358,1.26786 2.55199,2.44626 3.80832,3.51198 1.41626,1.20138 2.829,2.28045 4.20182,3.19343 1.37364,0.91352 2.77563,1.70648 4.15517,2.28209 1.42493,0.63075 2.90901,1.336 4.38189,2.12558 2.14894,1.152 4.25686,2.65993 6.2642,4.419 1.75407,1.53712 3.2763,3.15729 4.6615,4.49194 0.29166,0.28102 0.5797,0.55013 0.86373,0.80028 1.96718,1.73252 5.02424,3.51866 5.95327,4.54023 0.34185,-1.45117 1.72653,-4.77049 0.76572,-8.34254 -0.12935,-0.48088 -0.29955,-0.97927 -0.50974,-1.489 -1.02543,-2.4868 -2.87639,-4.97478 -5.28498,-7.17875 -2.68729,-2.45898 -5.66482,-4.21984 -8.37203,-5.59286 -1.88738,-0.95722 -3.77325,-1.70384 -5.58988,-2.26866 -0.78441,-0.21993 -1.78279,-0.61277 -2.96709,-1.18992 -1.16552,-0.568 -2.46319,-1.29078 -3.85918,-2.1509 -1.23358,-0.76005 -2.53716,-1.62318 -3.88398,-2.57306 -1.50199,-1.05931 -3.14641,-2.26 -4.92508,-3.65178 -3.03785,-2.37706 -5.93017,-4.89474 -8.4174,-7.37104 -1.35684,-1.35088 -2.48624,-2.58339 -3.40843,-3.68391 -1.29608,-1.5467 -2.08684,-2.71867 -2.55068,-3.51034 z"
         id="path1628-5-5-9"
         sodipodi:nodetypes="csc"
         inkscape:original-d="m 118.14616,137.72399 c 3.60421,9.76969 19.7838,25.18327 28.445,28.37834 8.34356,3.07789 17.61452,9.25544 20.55775,20.62442"
         inkscape:path-effect="#path-effect2451-7-3-1" />
      <path
         style="display:inline;fill:#ffb380;fill-rule:nonzero;stroke:none;stroke-width:3.35571;stroke-linecap:round;stroke-linejoin:miter;stroke-miterlimit:4;stroke-dasharray:none;stroke-opacity:1"
         d="m 382.55059,130.63403 c -0.90446,0.16166 -2.31131,0.47772 -4.27627,1.25293 -1.39755,0.55135 -2.97961,1.29647 -4.74228,2.28211 -3.20445,1.79186 -6.57157,4.13831 -9.72547,6.74071 -1.8404,1.51859 -3.49504,3.0316 -4.89422,4.4371 -1.26786,1.27358 -2.44626,2.55199 -3.51197,3.80832 -1.20138,1.41625 -2.28046,2.829 -3.19344,4.20182 -0.91352,1.37364 -1.70648,2.77563 -2.28209,4.15517 -0.63075,1.42493 -1.336,2.90901 -2.12558,4.38189 -1.152,2.14894 -2.65993,4.25686 -4.419,6.2642 -1.53712,1.75407 -3.15729,3.2763 -4.49194,4.6615 -0.28102,0.29166 -0.55013,0.5797 -0.80027,0.86373 -1.73252,1.96718 -3.51866,5.02424 -4.54023,5.95327 1.45117,0.34185 4.77049,1.72653 8.34254,0.76572 0.48087,-0.12935 0.97927,-0.29955 1.489,-0.50974 2.48679,-1.02543 4.97477,-2.87639 7.17874,-5.28498 2.45898,-2.68729 4.21984,-5.66482 5.59286,-8.37203 0.95722,-1.88738 1.70384,-3.77325 2.26866,-5.58988 0.21993,-0.78441 0.61277,-1.78279 1.18992,-2.96709 0.568,-1.16552 1.29078,-2.46319 2.1509,-3.85918 0.76006,-1.23358 1.62318,-2.53716 2.57306,-3.88398 1.05932,-1.50199 2.26,-3.14641 3.65178,-4.92508 2.37707,-3.03785 4.89475,-5.93017 7.37105,-8.4174 1.35088,-1.35684 2.58339,-2.48624 3.68391,-3.40843 1.5467,-1.29608 2.71867,-2.08684 3.51034,-2.55068 z"
         id="path1628-5-5-9-7"
         sodipodi:nodetypes="csc"
         inkscape:original-d="m 382.55059,130.63403 c -9.76969,3.60421 -25.18328,19.7838 -28.37835,28.445 -3.07789,8.34356 -9.25544,17.61452 -20.62441,20.55775"
         inkscape:path-effect="#path-effect2451-7-3-1-6" />
      <path
         style="display:inline;fill:#ffb380;fill-rule:nonzero;stroke:none;stroke-width:3.35571;stroke-linecap:round;stroke-linejoin:miter;stroke-miterlimit:4;stroke-dasharray:none;stroke-opacity:1"
         d="m 381.64559,380.19594 c -0.16166,-0.90446 -0.47772,-2.31131 -1.25293,-4.27627 -0.55135,-1.39755 -1.29647,-2.97961 -2.28211,-4.74228 -1.79186,-3.20445 -4.13831,-6.57157 -6.74071,-9.72547 -1.51859,-1.8404 -3.0316,-3.49504 -4.4371,-4.89422 -1.27358,-1.26786 -2.55199,-2.44626 -3.80832,-3.51197 -1.41625,-1.20138 -2.829,-2.28046 -4.20182,-3.19344 -1.37364,-0.91352 -2.77563,-1.70648 -4.15517,-2.28209 -1.42493,-0.63075 -2.90901,-1.336 -4.38189,-2.12558 -2.14894,-1.152 -4.25686,-2.65993 -6.2642,-4.419 -1.75407,-1.53712 -3.2763,-3.15729 -4.6615,-4.49194 -0.29166,-0.28102 -0.5797,-0.55013 -0.86373,-0.80027 -1.96718,-1.73252 -5.02424,-3.51866 -5.95327,-4.54023 -0.34185,1.45117 -1.72653,4.77049 -0.76572,8.34254 0.12935,0.48087 0.29955,0.97927 0.50974,1.489 1.02543,2.48679 2.87639,4.97477 5.28498,7.17874 2.68729,2.45898 5.66482,4.21984 8.37203,5.59286 1.88738,0.95722 3.77325,1.70384 5.58988,2.26866 0.78441,0.21993 1.78279,0.61277 2.96709,1.18992 1.16552,0.568 2.46319,1.29078 3.85918,2.1509 1.23358,0.76006 2.53716,1.62318 3.88398,2.57306 1.50199,1.05932 3.14641,2.26 4.92508,3.65178 3.03785,2.37707 5.93017,4.89475 8.4174,7.37105 1.35684,1.35088 2.48624,2.58339 3.40843,3.68391 1.29608,1.5467 2.08684,2.71867 2.55068,3.51034 z"
         id="path1628-5-5-9-7-3"
         sodipodi:nodetypes="csc"
         inkscape:original-d="m 381.64559,380.19594 c -3.60421,-9.76969 -19.7838,-25.18328 -28.445,-28.37835 -8.34356,-3.07789 -17.61452,-9.25544 -20.55775,-20.62441"
         inkscape:path-effect="#path-effect2451-7-3-1-6-5" />
      <path
         style="display:inline;fill:#ffb380;fill-rule:nonzero;stroke:none;stroke-width:3.35571;stroke-linecap:round;stroke-linejoin:miter;stroke-miterlimit:4;stroke-dasharray:none;stroke-opacity:1"
         d="m 132.76441,385.96972 c 0.90446,-0.16166 2.31131,-0.47772 4.27627,-1.25293 1.39755,-0.55135 2.97961,-1.29647 4.74228,-2.28211 3.20445,-1.79186 6.57157,-4.13831 9.72547,-6.74071 1.8404,-1.51859 3.49504,-3.0316 4.89422,-4.4371 1.26786,-1.27358 2.44626,-2.55199 3.51197,-3.80832 1.20138,-1.41625 2.28046,-2.829 3.19344,-4.20182 0.91352,-1.37364 1.70648,-2.77563 2.28209,-4.15517 0.63075,-1.42493 1.336,-2.90901 2.12558,-4.38189 1.152,-2.14894 2.65993,-4.25686 4.419,-6.2642 1.53712,-1.75407 3.15729,-3.2763 4.49194,-4.6615 0.28102,-0.29166 0.55013,-0.5797 0.80027,-0.86373 1.73252,-1.96718 3.51866,-5.02424 4.54023,-5.95327 -1.45117,-0.34185 -4.77049,-1.72653 -8.34254,-0.76572 -0.48087,0.12935 -0.97927,0.29955 -1.489,0.50974 -2.48679,1.02543 -4.97477,2.87639 -7.17874,5.28498 -2.45898,2.68729 -4.21984,5.66482 -5.59286,8.37203 -0.95722,1.88738 -1.70384,3.77325 -2.26866,5.58988 -0.21993,0.78441 -0.61277,1.78279 -1.18992,2.96709 -0.568,1.16552 -1.29078,2.46319 -2.1509,3.85918 -0.76006,1.23358 -1.62318,2.53716 -2.57306,3.88398 -1.05932,1.50199 -2.26,3.14641 -3.65178,4.92508 -2.37707,3.03785 -4.89475,5.93017 -7.37105,8.4174 -1.35088,1.35684 -2.58339,2.48624 -3.68391,3.40843 -1.5467,1.29608 -2.71867,2.08684 -3.51034,2.55068 z"
         id="path1628-5-5-9-7-3-6"
         sodipodi:nodetypes="csc"
         inkscape:original-d="m 132.76441,385.96972 c 9.76969,-3.60421 25.18328,-19.7838 28.37835,-28.445 3.07789,-8.34356 9.25544,-17.61452 20.62441,-20.55775"
         inkscape:path-effect="#path-effect2451-7-3-1-6-5-5" />
    </g>
  </g>
  <g
     id="g2863"
     transform="matrix(1.3463577,0,0,1.3463577,-90.258497,-77.194606)">
    <path
       id="path1536-7"
       style="display:inline;fill:#ffdd55;fill-opacity:1;stroke:none;stroke-width:1px;stroke-linecap:butt;stroke-linejoin:miter;stroke-opacity:1"
       d="m 251.72656,62.351562 c 0,10e-7 -32.40949,30.343139 -17.33203,56.667968 7.03432,10.41748 3.12487,21.32189 -1.54492,28.84961 A 110.86092,110.86092 0 0 1 256,145.13867 a 110.86092,110.86092 0 0 1 30.94336,4.46289 c -1.64799,-6.9093 -7.25893,-24.32014 -23.8125,-32.95898 -32.94518,-18.177886 -11.4043,-54.291017 -11.4043,-54.291018 z m 76.71485,30.894532 c 0,0 11.43094,40.465786 -25.10352,49.468746 -6.07048,1.34733 -11.21128,3.99707 -15.5332,7.13672 a 110.86092,110.86092 0 0 1 35.03711,17.76367 c 0.45946,-5.35349 2.54508,-10.73699 7.63086,-15.14648 21.39397,-21.50871 -2.03125,-59.222656 -2.03125,-59.222656 z m -164.48243,9.443356 c 0,0 39.96364,13.08185 27.06055,48.42774 -2.3521,6.00672 -3.00757,11.97356 -2.73633,17.47851 a 110.86092,110.86092 0 0 1 36.08008,-18.45312 c -5.02007,-3.40903 -9.17662,-8.49392 -10.11523,-16.10742 -5.92118,-29.75343 -50.28907,-31.34571 -50.28907,-31.34571 z m 229.18946,25.96485 c -13.72782,-0.029 -36.89846,2.95198 -44.6211,22.32617 -4.02782,12.77048 -16.26366,16.1983 -25.29492,16.9375 a 110.86092,110.86092 0 0 1 34.07422,43.18164 c 4.4037,-5.62489 14.4807,-20.80956 10.95703,-39.0957 -6.26053,-37.10292 35.41406,-42.70118 35.41406,-42.70118 0,0 -4.28938,-0.63524 -10.52929,-0.64843 z M 95.53125,149.13672 c 0,0 7.10975,43.82326 37.36914,45.99023 11.69096,-0.0267 18.46946,8.07377 22.30273,15.71094 a 110.86092,110.86092 0 0 1 32.875,-42.09961 c -6.29781,-2.41544 -24.35875,-7.90772 -41.12304,1.21094 -33.46226,17.20746 -51.42383,-20.8125 -51.42383,-20.8125 z m 26.77344,55.63086 c -21.62968,-0.27396 -41.86719,20.92578 -41.86719,20.92578 0,0 36.3207,-21.1905 54.17773,11.92969 2.86112,5.61469 6.77514,9.97763 10.95899,13.39648 a 110.86092,110.86092 0 0 1 8.9082,-38.63281 c -5.47517,1.06151 -11.44629,0.50133 -17.21289,-3.47461 -4.90821,-2.87484 -9.97338,-4.08131 -14.96484,-4.14453 z m 304.90625,3.81836 c 0,0 -24.57627,34.12266 -54.35156,11.11718 -4.80339,-3.89254 -10.04164,-6.26128 -15.16016,-7.69531 a 110.86092,110.86092 0 0 1 8.96484,37.71875 c 4.25772,-2.50812 9.38675,-3.84418 15.4375,-2.71094 30.14895,3.37164 45.10938,-38.42968 45.10938,-38.42968 z m -281.69532,43.11523 c -6.19714,3.26138 -21.83426,13.06801 -26.08398,31.37305 -9.35739,36.44528 -49.710937,24.62305 -49.710937,24.62305 0,0 37.485677,23.78952 59.201177,2.60546 8.14472,-9.21155 19.38811,-8.39436 27.80078,-5.88476 A 110.86092,110.86092 0 0 1 145.13867,256 a 110.86092,110.86092 0 0 1 0.37695,-4.29883 z m 221.26563,1.7793 A 110.86092,110.86092 0 0 1 366.86135,256 110.86092,110.86092 0 0 1 353.6719,307.86133 c 8.40233,0.29057 24.02847,-0.92611 35.85546,-12.36524 27.64606,-25.5248 55.11524,6.31446 55.11524,6.31446 0,0 -18.56297,-40.33118 -48.30078,-34.33203 -14.18172,3.96828 -24.34456,-6.53913 -29.56055,-13.99805 z m -209.46484,52.21289 c -2.4686,5.52361 -6.71321,10.49898 -14.01368,12.76758 -28.22798,11.1134 -21.91015,55.05859 -21.91015,55.05859 0,0 5.77355,-41.6521 42.84961,-35.23437 6.25109,1.23206 12.16427,0.8323 17.48242,-0.37696 a 110.86092,110.86092 0 0 1 -24.4082,-32.21484 z m 193.98632,6.74219 a 110.86092,110.86092 0 0 1 -22.95703,27.40234 c 2.40278,2.07097 4.47564,4.73925 5.9336,8.25391 13.65782,27.08857 56.83789,16.76367 56.83789,16.76367 0,0 -42.00456,-1.92495 -39.01758,-39.43359 0.47508,-4.611 0.0864,-8.95582 -0.79688,-12.98633 z m -169.23242,25.81836 c -1.26212,6.77714 -3.31533,25.30043 8.53321,40.04882 22.87908,29.87252 -11.34571,54.30274 -11.34571,54.30274 0,0 41.86297,-14.78234 38.61914,-44.94531 -2.07753,-11.35831 4.48588,-19.39744 11.22852,-24.53125 a 110.86092,110.86092 0 0 1 -47.03516,-24.875 z m 143.54883,3.81836 a 110.86092,110.86092 0 0 1 -48.58398,22.625 c 5.46166,6.84501 15.58323,16.5531 30.42578,18.55468 37.16312,5.89254 29.18359,47.17774 29.18359,47.17774 0,0 20.16344,-39.55405 -2.9668,-59.1836 -10.72925,-7.82178 -10.1915,-20.38787 -8.05859,-29.17382 z m -91.06055,22.51562 c -0.34383,2.57573 -1.12151,5.20838 -2.60937,7.87109 -12.80571,27.50167 22.04687,55.00391 22.04687,55.00391 0,0 -24.50727,-34.16936 6.78907,-55.05859 3.07659,-1.95189 5.67201,-4.22902 7.92968,-6.65625 A 110.86092,110.86092 0 0 1 256,366.86133 110.86092,110.86092 0 0 1 234.55859,364.58789 Z" />
    <circle
       style="display:inline;fill:#ffdd55;stroke-width:5.73209;stroke-linecap:round;paint-order:fill markers stroke"
       id="path448-3"
       cx="256"
       cy="256"
       r="98.669579" />
    <circle
       style="display:inline;fill:#ffeeaa;stroke-width:5.27649;stroke-linecap:round;paint-order:fill markers stroke"
       id="path448"
       cx="254.11569"
       cy="253.77261"
       r="90.827065" />
    <circle
       style="display:inline;fill:#ffffff;stroke:none;stroke-width:3.42715;stroke-linecap:round;stroke-miterlimit:4;stroke-dasharray:none;stroke-opacity:1;paint-order:fill markers stroke"
       id="path4531"
       cx="242.29305"
       cy="241.48425"
       r="64.836586" />
  </g>
</svg>
