<?xml version="1.0" encoding="UTF-8" standalone="no"?>
<svg
   fill="hsl(200, 100%, 20%)"
   viewBox="0 0 512 512"
   version="1.1"
   id="svg4"
   sodipodi:docname="sun.svg"
   inkscape:version="1.2.2 (b0a8486, 2022-12-01)"
   xmlns:inkscape="http://www.inkscape.org/namespaces/inkscape"
   xmlns:sodipodi="http://sodipodi.sourceforge.net/DTD/sodipodi-0.dtd"
   xmlns="http://www.w3.org/2000/svg"
   xmlns:svg="http://www.w3.org/2000/svg">
  <defs
     id="defs8">
    <inkscape:path-effect
       effect="offset"
       id="path-effect3871"
       is_visible="true"
       lpeversion="1"
       linejoin_type="miter"
       unit="mm"
       offset="0"
       miter_limit="4"
       attempt_force_join="false"
       update_on_knot_move="true" />
    <inkscape:path-effect
       effect="knot"
       id="path-effect3869"
       is_visible="true"
       lpeversion="1"
       switcher_size="15"
       interruption_width="3"
       prop_to_stroke_width="true"
       add_stroke_width="inkscape_1.0_and_up"
       both="false"
       inverse_width="false"
       add_other_stroke_width="inkscape_1.0_and_up"
       crossing_points_vector="" />
    <inkscape:path-effect
       effect="powerstroke"
       id="path-effect3768"
       is_visible="true"
       lpeversion="1"
       offset_points="2.711731,1.8027867 | 6.7189829,7.3543612 | 11.101524,3.0089253"
       not_jump="false"
       sort_points="true"
       interpolator_type="CentripetalCatmullRom"
       interpolator_beta="0.2"
       start_linecap_type="zerowidth"
       linejoin_type="round"
       miter_limit="4"
       scale_width="1"
       end_linecap_type="zerowidth" />
    <inkscape:path-effect
       effect="powerstroke"
       id="path-effect2451"
       is_visible="true"
       lpeversion="1"
       offset_points="0.63756067,2.8724438 | 0.98511302,4.2374645 | 1.7935987,4.353168"
       not_jump="false"
       sort_points="true"
       interpolator_type="CentripetalCatmullRom"
       interpolator_beta="0.2"
       start_linecap_type="zerowidth"
       linejoin_type="round"
       miter_limit="4"
       scale_width="1"
       end_linecap_type="zerowidth" />
    <inkscape:path-effect
       effect="powerstroke"
       id="path-effect2451-3"
       is_visible="true"
       lpeversion="1"
       offset_points="0.63756067,2.8724438 | 0.98511302,4.2374645 | 1.7935987,4.353168"
       not_jump="false"
       sort_points="true"
       interpolator_type="CentripetalCatmullRom"
       interpolator_beta="0.2"
       start_linecap_type="zerowidth"
       linejoin_type="round"
       miter_limit="4"
       scale_width="1"
       end_linecap_type="zerowidth" />
    <inkscape:path-effect
       effect="powerstroke"
       id="path-effect2451-7"
       is_visible="true"
       lpeversion="1"
       offset_points="0.63756067,2.8724438 | 0.98511302,4.2374645 | 1.7935987,4.353168"
       not_jump="false"
       sort_points="true"
       interpolator_type="CentripetalCatmullRom"
       interpolator_beta="0.2"
       start_linecap_type="zerowidth"
       linejoin_type="round"
       miter_limit="4"
       scale_width="1"
       end_linecap_type="zerowidth" />
    <inkscape:path-effect
       effect="powerstroke"
       id="path-effect2451-7-3"
       is_visible="true"
       lpeversion="1"
       offset_points="0.63756067,2.8724438 | 0.98511302,4.2374645 | 1.7935987,4.353168"
       not_jump="false"
       sort_points="true"
       interpolator_type="CentripetalCatmullRom"
       interpolator_beta="0.2"
       start_linecap_type="zerowidth"
       linejoin_type="round"
       miter_limit="4"
       scale_width="1"
       end_linecap_type="zerowidth" />
    <inkscape:path-effect
       effect="powerstroke"
       id="path-effect2451-6"
       is_visible="true"
       lpeversion="1"
       offset_points="0.63756067,1.4362219 | 0.98511302,2.1187322 | 1.7935987,2.176584"
       not_jump="false"
       sort_points="true"
       interpolator_type="CentripetalCatmullRom"
       interpolator_beta="0.2"
       start_linecap_type="zerowidth"
       linejoin_type="round"
       miter_limit="4"
       scale_width="1"
       end_linecap_type="zerowidth" />
    <inkscape:path-effect
       effect="powerstroke"
       id="path-effect2451-3-2"
       is_visible="true"
       lpeversion="1"
       offset_points="0.63756067,1.4362219 | 0.98511302,2.1187322 | 1.7935987,2.176584"
       not_jump="false"
       sort_points="true"
       interpolator_type="CentripetalCatmullRom"
       interpolator_beta="0.2"
       start_linecap_type="zerowidth"
       linejoin_type="round"
       miter_limit="4"
       scale_width="1"
       end_linecap_type="zerowidth" />
    <inkscape:path-effect
       effect="powerstroke"
       id="path-effect2451-7-9"
       is_visible="true"
       lpeversion="1"
       offset_points="0.63756067,1.4362219 | 0.98511302,2.1187322 | 1.7935987,2.176584"
       not_jump="false"
       sort_points="true"
       interpolator_type="CentripetalCatmullRom"
       interpolator_beta="0.2"
       start_linecap_type="zerowidth"
       linejoin_type="round"
       miter_limit="4"
       scale_width="1"
       end_linecap_type="zerowidth" />
    <inkscape:path-effect
       effect="powerstroke"
       id="path-effect2451-7-3-1"
       is_visible="true"
       lpeversion="1"
       offset_points="0.63715133,3.5512493 | 1.1970924,4.7064077 | 1.7919238,3.8601286"
       not_jump="false"
       sort_points="true"
       interpolator_type="CentripetalCatmullRom"
       interpolator_beta="0.2"
       start_linecap_type="zerowidth"
       linejoin_type="round"
       miter_limit="4"
       scale_width="1"
       end_linecap_type="zerowidth" />
    <inkscape:path-effect
       effect="powerstroke"
       id="path-effect2451-7-3-1-6"
       is_visible="true"
       lpeversion="1"
       offset_points="0.63715133,3.5512493 | 1.1970924,4.7064077 | 1.7919238,3.8601286"
       not_jump="false"
       sort_points="true"
       interpolator_type="CentripetalCatmullRom"
       interpolator_beta="0.2"
       start_linecap_type="zerowidth"
       linejoin_type="round"
       miter_limit="4"
       scale_width="1"
       end_linecap_type="zerowidth" />
    <inkscape:path-effect
       effect="powerstroke"
       id="path-effect2451-7-3-1-6-5"
       is_visible="true"
       lpeversion="1"
       offset_points="0.63715133,3.5512493 | 1.1970924,4.7064077 | 1.7919238,3.8601286"
       not_jump="false"
       sort_points="true"
       interpolator_type="CentripetalCatmullRom"
       interpolator_beta="0.2"
       start_linecap_type="zerowidth"
       linejoin_type="round"
       miter_limit="4"
       scale_width="1"
       end_linecap_type="zerowidth" />
    <inkscape:path-effect
       effect="powerstroke"
       id="path-effect2451-7-3-1-6-5-5"
       is_visible="true"
       lpeversion="1"
       offset_points="0.63715133,3.5512493 | 1.1970924,4.7064077 | 1.7919238,3.8601286"
       not_jump="false"
       sort_points="true"
       interpolator_type="CentripetalCatmullRom"
       interpolator_beta="0.2"
       start_linecap_type="zerowidth"
       linejoin_type="round"
       miter_limit="4"
       scale_width="1"
       end_linecap_type="zerowidth" />
  </defs>
  <sodipodi:namedview
     id="namedview6"
     pagecolor="#ffffff"
     bordercolor="#999999"
     borderopacity="1"
     inkscape:pageshadow="0"
     inkscape:pageopacity="0"
     inkscape:pagecheckerboard="0"
     showgrid="false"
     showguides="false"
     inkscape:guide-bbox="true"
     inkscape:zoom="1.625"
     inkscape:cx="171.38462"
     inkscape:cy="196.30769"
     inkscape:window-width="1920"
     inkscape:window-height="1052"
     inkscape:window-x="0"
     inkscape:window-y="0"
     inkscape:window-maximized="1"
     inkscape:current-layer="layer1"
     inkscape:showpageshadow="0"
     inkscape:deskcolor="#d1d1d1">
    <sodipodi:guide
       position="257.07692,430.15385"
       orientation="1,0"
       id="guide2738"
       inkscape:locked="false" />
    <sodipodi:guide
       position="137.23077,259.07692"
       orientation="0,-1"
       id="guide3286"
       inkscape:locked="false" />
  </sodipodi:namedview>
  <!--! Font Awesome Pro 6.2.1 by @fontawesome - https://fontawesome.com License - https://fontawesome.com/license (Commercial License) Copyright 2022 Fonticons, Inc. -->
  <g
     inkscape:groupmode="layer"
     id="layer1"
     inkscape:label="Layer 1"
     style="display:inline">
    <g
       id="g1035"
       transform="matrix(0.83753746,0,0,0.83753746,38.140449,30.915206)"
       style="display:inline">
      <circle
         style="display:inline;fill:#ffdd55;stroke-width:6.84398;stroke-linecap:round;paint-order:fill markers stroke"
         id="path448-3"
         cx="260.11917"
         cy="268.74594"
         r="117.80915" />
      <circle
         style="fill:#ffeeaa;stroke-width:6.3;stroke-linecap:round;paint-order:fill markers stroke"
         id="path448"
         cx="257.86935"
         cy="266.08649"
         r="108.44537" />
      <circle
         style="fill:#fff6d5;stroke:none;stroke-width:4.09194;stroke-linecap:round;stroke-miterlimit:4;stroke-dasharray:none;stroke-opacity:1;paint-order:fill markers stroke"
         id="path4531"
         cx="252.3925"
         cy="261.53091"
         r="77.413361" />
      <path
         sodipodi:type="spiral"
         style="fill:#ffffff;fill-opacity:1;fill-rule:nonzero;stroke:none;stroke-width:9.6;stroke-linecap:round;stroke-miterlimit:4;stroke-dasharray:none"
         id="path929"
         sodipodi:cx="259.43326"
         sodipodi:cy="239.89972"
         sodipodi:expansion="1"
         sodipodi:revolution="3"
         sodipodi:radius="82.888611"
         sodipodi:argument="-20.474525"
         sodipodi:t0="0"
         transform="matrix(-0.46144033,-0.64695872,0.64695872,-0.46144033,208.67144,532.00479)"
         d="m 259.43326,239.89972 c -4.2e-4,-0.46075 0.07,-0.89516 0.24495,-1.26018 0.0743,-0.15498 0.16587,-0.29422 0.27541,-0.4162 0.10163,-0.11316 0.21817,-0.21088 0.3498,-0.29261 0.24109,-0.14969 0.53403,-0.24636 0.87794,-0.28454 0.31444,-0.0349 0.66914,-0.0205 1.05443,0.0459 0.70023,0.12071 1.48674,0.41275 2.19863,0.83815 0.32836,0.19621 0.63231,0.41625 0.88812,0.64819 0.24805,0.22491 0.44116,0.45247 0.56385,0.66503 0.42314,0.63063 0.72197,1.27943 0.90913,1.93692 0.18265,0.64165 0.25935,1.293 0.24074,1.94554 -0.0363,1.27131 -0.43703,2.55621 -1.12058,3.75906 -0.67002,1.17904 -1.60332,2.26578 -2.68909,3.15929 -1.07758,0.88678 -2.27695,1.55966 -3.46489,1.94307 -2.18877,0.76308 -4.34274,0.88173 -6.3602,0.52989 -2.05684,-0.3587 -3.98793,-1.20938 -5.69056,-2.39008 -1.48641,-1.03075 -2.79059,-2.30661 -3.86314,-3.72068 -0.19664,-0.25925 -0.38632,-0.52448 -0.56859,-0.79521 -1.17651,-1.74746 -2.03534,-3.71083 -2.46864,-5.74722 -0.6883,-2.97123 -0.61153,-5.88453 0.0792,-8.61816 0.6782,-2.68415 1.95282,-5.21055 3.69395,-7.44176 1.71317,-2.19539 3.86837,-4.09167 6.31296,-5.54811 2.41019,-1.43594 5.07495,-2.42834 7.83216,-2.8675 3.69123,-0.64268 7.26856,-0.38755 10.59289,0.57041 3.29669,0.94999 6.37377,2.60018 9.07069,4.79075 5.36239,4.35559 9.10182,10.74554 10.08521,17.6748 0.66155,4.38194 0.29347,8.62023 -0.87881,12.55484 -1.17114,3.93078 -3.15648,7.59512 -5.77035,10.80438 -5.24701,6.44218 -12.89871,10.90617 -21.25027,12.08327 -5.13133,0.74295 -10.10582,0.30773 -14.73595,-1.0543 -4.65539,-1.36947 -9.00069,-3.68777 -12.81434,-6.74038 -3.35651,-2.6867 -6.28571,-5.92999 -8.64278,-9.56796 -2.95327,-4.55816 -5.08794,-9.86912 -5.93657,-15.65098 -0.86474,-5.89741 -0.43112,-11.75052 1.17529,-17.32946 1.56257,-5.42665 4.23639,-10.58964 7.87296,-15.18195 7.08222,-8.9435 17.6936,-15.53858 29.8762,-17.28621 6.96895,-0.99071 13.80988,-0.42639 20.24485,1.44122 6.42374,1.86436 12.44118,5.02832 17.72833,9.2281 5.30164,4.21129 9.83058,9.43404 13.27637,15.35449 3.4731,5.9674 5.82754,12.61071 6.79429,19.61818 1.10757,8.12095 0.3845,16.01222 -1.77104,23.34309 -2.20352,7.49407 -5.90404,14.40492 -10.69154,20.40036 -4.92813,6.17156 -10.9752,11.33542 -17.70804,15.2239 -6.99255,4.03847 -14.67322,6.67546 -22.64905,7.73602 -9.41659,1.23661 -18.41132,0.3064 -26.59123,-2.12495 -8.7364,-2.59676 -16.56714,-6.9075 -23.19928,-12.22243 -7.24392,-5.80521 -13.02326,-12.76892 -17.27837,-20.16713 -4.82105,-8.38218 -7.63356,-17.20441 -8.76255,-25.83286 -0.56426,-4.37474 -0.70206,-8.55319 -0.52881,-12.48824 0.27119,-6.15939 1.31042,-12.04373 2.92994,-17.56368 2.97153,-10.12816 7.87922,-18.99499 13.66143,-26.3466 6.86623,-8.72985 14.87087,-15.23601 22.68769,-19.84919 11.30014,-6.6689 22.03788,-9.2837 29.42914,-10.27333 -7.38514,0.60136 -18.34004,2.46351 -30.3618,8.5711 -8.27668,4.20492 -17.00603,10.43448 -24.65951,19.13115 -6.4639,7.34495 -12.15981,16.46019 -15.8075,27.16191 -1.98882,5.83489 -3.36285,12.13314 -3.88573,18.79671 -0.33399,4.2564 -0.33452,8.80034 0.1307,13.58037 0.90643,9.47197 3.66214,19.27354 8.68609,28.69619 4.43168,8.31182 10.60486,16.24914 18.48498,22.95782 7.2318,6.15674 15.90204,11.27828 25.76304,14.5047 9.24353,3.02439 19.55189,4.37754 30.45421,3.21068 9.30122,-0.98317 18.33252,-3.81218 26.61903,-8.31519 7.97083,-4.33147 15.21534,-10.19774 21.19591,-17.32291 5.81179,-6.92409 10.43483,-15.04567 13.29394,-24.01673 2.80148,-8.7902 3.89991,-18.37636 2.74174,-28.31906 -1.00013,-8.6726 -3.72627,-16.9357 -7.85735,-24.39013 -4.09409,-7.38768 -9.55975,-13.96501 -16.05444,-19.33017 -6.47758,-5.35103 -13.98402,-9.4977 -22.14489,-12.01599 -8.19708,-2.52946 -17.01213,-3.40353 -26.03416,-2.2455 -15.99999,2.03966 -29.96104,10.47016 -39.34201,22.07861 -4.83617,5.98451 -8.47398,12.82552 -10.63008,20.14932 -2.22312,7.55146 -2.84828,15.53432 -1.68081,23.56663 1.16794,8.04062 4.13955,15.3553 8.21098,21.561 3.24921,4.95247 7.29799,9.34858 11.95403,12.96967 5.29234,4.11597 11.38428,7.24134 17.97768,9.02215 6.58234,1.77783 13.62267,2.20314 20.77734,0.96441 11.9212,-2.0917 22.25975,-8.8355 29.04061,-18.03675 3.39556,-4.6076 5.90417,-9.84749 7.2525,-15.45245 1.35507,-5.63298 1.5267,-11.58811 0.29182,-17.57544 -2.05486,-9.6985 -7.87813,-17.94984 -15.4052,-23.17419 -3.82625,-2.65571 -8.12104,-4.55382 -12.65763,-5.49392 -4.59195,-0.95157 -9.38594,-0.91248 -14.153,0.26619 -3.66533,0.94286 -7.03004,2.58951 -9.93561,4.70333 -2.95028,2.14635 -5.45082,4.79017 -7.35834,7.73526 -1.94259,2.99922 -3.27409,6.31553 -3.85567,9.77002 -0.59419,3.5293 -0.39989,7.1638 0.67646,10.73793 0.7949,2.52227 2.07044,4.8343 3.63829,6.81654 0.2441,0.30863 0.49564,0.60972 0.75405,0.90291 1.40705,1.59645 3.06772,3.00793 4.92303,4.11808 2.12839,1.27356 4.51657,2.15003 7.03026,2.4327 2.47863,0.27873 5.05162,-0.0221 7.58279,-1.0486 1.44114,-0.6126 2.80212,-1.5415 3.9658,-2.65773 1.17697,-1.12897 2.16337,-2.45982 2.84288,-3.88397 0.69681,-1.46041 1.06762,-3.01134 1.00467,-4.54643 -0.0323,-0.78721 -0.17826,-1.56183 -0.44539,-2.31171 -0.27361,-0.76806 -0.67129,-1.50186 -1.19419,-2.1933 -0.23552,-0.28924 -0.53651,-0.55076 -0.85953,-0.7783 -0.33745,-0.23772 -0.71371,-0.44882 -1.10059,-0.62657 -0.83416,-0.38323 -1.72808,-0.61694 -2.51612,-0.66462 -0.43492,-0.0263 -0.8364,0.003 -1.19223,0.0884 -0.39075,0.0937 -0.7173,0.2524 -0.97535,0.46761 -0.14013,0.11687 -0.25772,0.24841 -0.35443,0.39184 -0.10405,0.15432 -0.18303,0.32104 -0.24058,0.49638 -0.13421,0.40888 -0.15148,0.86332 -0.10254,1.31701 z"
         inkscape:path-effect="#path-effect3768" />
    </g>
    <path
       style="fill:#ffcc00;fill-rule:nonzero;stroke:none;stroke-width:6.71143;stroke-linecap:round;stroke-linejoin:miter;stroke-miterlimit:4;stroke-dasharray:none;stroke-opacity:1"
       d="m 255.66258,12.215237 c -0.85493,1.550334 -2.09468,4.101501 -3.36932,8.053029 -0.90352,2.801008 -1.761,6.107015 -2.51375,9.964674 -1.40856,7.218585 -2.22048,15.191835 -2.51179,22.98872 -0.18296,4.896921 -0.1446,9.279613 -0.009,12.917074 0.14129,3.786976 0.37345,7.139726 0.64999,9.981196 0.33987,3.492041 0.80624,6.842346 1.4672,9.962835 0.5014,2.367159 1.18907,4.953532 2.14478,7.393801 0.11492,0.293433 0.23469,0.589398 0.35949,0.886254 2.73478,6.66311 5.38552,15.8558 5.86176,26.07933 0.2534,5.43991 -0.13763,9.85528 -0.58606,13.98013 -0.0977,0.89838 -0.19495,1.76519 -0.27343,2.54797 -0.55215,5.50755 -0.61548,11.38879 -1.21997,13.8457 1.94662,-1.8058 6.83574,-5.28406 9.60511,-11.50268 0.38029,-0.85393 0.74437,-1.80371 1.07933,-2.83887 1.48642,-4.5936 2.22619,-10.2806 1.85234,-16.59116 -0.70931,-11.97345 -5.10249,-22.289131 -8.56588,-29.094905 -0.11005,-0.212517 -0.21748,-0.42893 -0.32214,-0.648192 -0.88122,-1.846205 -1.66863,-3.978737 -2.33582,-6.054317 -0.86759,-2.699011 -1.68145,-5.764853 -2.37477,-8.995185 -0.56973,-2.65455 -1.13788,-5.787514 -1.61691,-9.429326 -0.45965,-3.49449 -0.89451,-7.699895 -1.16928,-12.482477 -0.43682,-7.603286 -0.39579,-15.435709 0.22951,-22.626195 0.33361,-3.836183 0.80493,-7.160652 1.35503,-9.999397 0.77639,-4.006471 1.63963,-6.680533 2.26348,-8.338009 z"
       id="path1628"
       sodipodi:nodetypes="csc"
       inkscape:original-d="m 255.66258,12.215237 c -8.71929,18.91355 -7.63598,63.593035 0.0943,80.360342 7.44678,16.152351 11.82151,37.999831 -0.0943,58.240371"
       inkscape:path-effect="#path-effect2451" />
    <path
       style="fill:#ffdd55;fill-rule:nonzero;stroke:none;stroke-width:6.71143;stroke-linecap:round;stroke-linejoin:miter;stroke-miterlimit:4;stroke-dasharray:none;stroke-opacity:1"
       d="m 499.99895,249.90123 c -1.55033,-0.85493 -4.1015,-2.09468 -8.05303,-3.36932 -2.80101,-0.90352 -6.10701,-1.761 -9.96467,-2.51375 -7.21859,-1.40856 -15.19184,-2.22048 -22.98872,-2.51179 -4.89693,-0.18296 -9.27962,-0.1446 -12.91708,-0.009 -3.78698,0.14129 -7.13972,0.37345 -9.98119,0.64999 -3.49204,0.33987 -6.84235,0.80624 -9.96284,1.4672 -2.36716,0.5014 -4.95353,1.18907 -7.3938,2.14478 -0.29343,0.11492 -0.5894,0.23469 -0.88625,0.35949 -6.66311,2.73478 -15.85581,5.38552 -26.07933,5.86176 -5.43991,0.2534 -9.85529,-0.13763 -13.98013,-0.58606 -0.89839,-0.0977 -1.76519,-0.19495 -2.54798,-0.27343 -5.50755,-0.55215 -11.38878,-0.61548 -13.8457,-1.21997 1.8058,1.94662 5.28407,6.83574 11.50268,9.60511 0.85394,0.38029 1.80372,0.74437 2.83887,1.07933 4.5936,1.48642 10.28061,2.22619 16.59116,1.85234 11.97345,-0.70931 22.28914,-5.10249 29.09491,-8.56588 0.21252,-0.11005 0.42893,-0.21748 0.6482,-0.32214 1.8462,-0.88122 3.97873,-1.66863 6.05431,-2.33582 2.69901,-0.86759 5.76485,-1.68145 8.99518,-2.37477 2.65455,-0.56973 5.78752,-1.13788 9.42933,-1.61691 3.49449,-0.45965 7.69989,-0.89451 12.48248,-1.16928 7.60328,-0.43682 15.43571,-0.39579 22.62619,0.22951 3.83619,0.33361 7.16066,0.80493 9.9994,1.35503 4.00647,0.77639 6.68053,1.63963 8.33801,2.26348 z"
       id="path1628-6"
       sodipodi:nodetypes="csc"
       inkscape:original-d="m 499.99895,249.90123 c -18.91355,-8.71929 -63.59304,-7.63598 -80.36034,0.0943 -16.15236,7.44678 -37.99983,11.82151 -58.24038,-0.0943"
       inkscape:path-effect="#path-effect2451-3" />
    <path
       style="fill:#ffd42a;fill-rule:nonzero;stroke:none;stroke-width:6.71143;stroke-linecap:round;stroke-linejoin:miter;stroke-miterlimit:4;stroke-dasharray:none;stroke-opacity:1"
       d="m 255.66258,499.78474 c 0.85493,-1.55033 2.09468,-4.1015 3.36932,-8.05303 0.90352,-2.80101 1.761,-6.10701 2.51375,-9.96467 1.40856,-7.21859 2.22048,-15.19184 2.51179,-22.98872 0.18296,-4.89692 0.1446,-9.27961 0.009,-12.91707 -0.14129,-3.78698 -0.37345,-7.13973 -0.64999,-9.9812 -0.33987,-3.49204 -0.80624,-6.84235 -1.4672,-9.96284 -0.5014,-2.36715 -1.18907,-4.95353 -2.14478,-7.3938 -0.11492,-0.29343 -0.23469,-0.58939 -0.35949,-0.88625 -2.73478,-6.66311 -5.38553,-15.8558 -5.86177,-26.07933 -0.2534,-5.43991 0.13763,-9.85528 0.58607,-13.98012 0.0977,-0.89839 0.19494,-1.7652 0.27342,-2.54798 0.55216,-5.50755 0.61549,-11.38879 1.21998,-13.8457 -1.94662,1.8058 -6.83574,5.28406 -9.60512,11.50268 -0.38028,0.85393 -0.74437,1.80371 -1.07933,2.83887 -1.48641,4.5936 -2.22618,10.2806 -1.85234,16.59116 0.70931,11.97345 5.10249,22.28913 8.56589,29.09491 0.11005,0.21251 0.21748,0.42892 0.32214,0.64819 0.88122,1.8462 1.66863,3.97873 2.33582,6.05431 0.86759,2.69901 1.68145,5.76486 2.37477,8.99519 0.56973,2.65455 1.13788,5.78751 1.61691,9.42933 0.45965,3.49448 0.89451,7.69989 1.16928,12.48247 0.43682,7.60329 0.39579,15.43571 -0.22951,22.62619 -0.33361,3.83619 -0.80493,7.16066 -1.35503,9.9994 -0.77639,4.00647 -1.63963,6.68053 -2.26348,8.33801 z"
       id="path1628-5"
       sodipodi:nodetypes="csc"
       inkscape:original-d="m 255.66258,499.78474 c 8.71929,-18.91355 7.63598,-63.59303 -0.0943,-80.36034 -7.44679,-16.15235 -11.82152,-37.99983 0.0943,-58.24037"
       inkscape:path-effect="#path-effect2451-7" />
    <path
       style="fill:#ffcc00;fill-rule:nonzero;stroke:none;stroke-width:6.71143;stroke-linecap:round;stroke-linejoin:miter;stroke-miterlimit:4;stroke-dasharray:none;stroke-opacity:1"
       d="m 12.001033,249.90123 c 1.550334,0.85493 4.101501,2.09468 8.053029,3.36932 2.801008,0.90352 6.107015,1.761 9.964674,2.51375 7.218585,1.40856 15.191836,2.22048 22.988721,2.51179 4.896921,0.18296 9.279613,0.1446 12.917074,0.009 3.786977,-0.14129 7.139727,-0.37345 9.981197,-0.64999 3.492041,-0.33987 6.842346,-0.80624 9.962835,-1.4672 2.36716,-0.5014 4.953532,-1.18907 7.393802,-2.14478 0.293433,-0.11492 0.589398,-0.23469 0.886254,-0.35949 6.663111,-2.73478 15.855801,-5.38553 26.079331,-5.86177 5.43991,-0.2534 9.85528,0.13763 13.98012,0.58607 0.89839,0.0977 1.7652,0.19494 2.54798,0.27342 5.50755,0.55216 11.38879,0.61549 13.8457,1.21998 -1.8058,-1.94662 -5.28406,-6.83574 -11.50268,-9.60512 -0.85393,-0.38028 -1.80371,-0.74437 -2.83887,-1.07933 -4.5936,-1.48641 -10.2806,-2.22618 -16.59116,-1.85234 -11.97345,0.70931 -22.289133,5.10249 -29.094908,8.56589 -0.212515,0.11005 -0.428928,0.21748 -0.64819,0.32214 -1.846205,0.88122 -3.978737,1.66863 -6.054318,2.33582 -2.69901,0.86759 -5.764853,1.68145 -8.995185,2.37477 -2.654551,0.56973 -5.787515,1.13788 -9.429327,1.61691 -3.49449,0.45965 -7.699895,0.89451 -12.482477,1.16928 -7.603287,0.43682 -15.43571,0.39579 -22.626196,-0.22951 -3.836183,-0.33361 -7.160652,-0.80493 -9.999397,-1.35503 -4.006471,-0.77639 -6.680533,-1.63963 -8.338009,-2.26348 z"
       id="path1628-5-5"
       sodipodi:nodetypes="csc"
       inkscape:original-d="m 12.001033,249.90123 c 18.91355,8.71929 63.593036,7.63598 80.360345,-0.0943 16.152352,-7.44679 37.999832,-11.82152 58.240372,0.0943"
       inkscape:path-effect="#path-effect2451-7-3" />
    <path
       style="fill:#ffb380;fill-rule:nonzero;stroke:none;stroke-width:3.35571;stroke-linecap:round;stroke-linejoin:miter;stroke-miterlimit:4;stroke-dasharray:none;stroke-opacity:1"
       d="m 118.14616,137.72399 c 0.16166,0.90446 0.47772,2.31131 1.25293,4.27627 0.55135,1.39754 1.29647,2.97961 2.28211,4.74228 1.79186,3.20445 4.13832,6.57157 6.74071,9.72546 1.51859,1.8404 3.0316,3.49504 4.4371,4.89422 1.27358,1.26786 2.55199,2.44626 3.80832,3.51198 1.41626,1.20138 2.829,2.28045 4.20182,3.19343 1.37364,0.91352 2.77563,1.70648 4.15517,2.28209 1.42493,0.63075 2.90901,1.336 4.38189,2.12558 2.14894,1.152 4.25686,2.65993 6.2642,4.419 1.75407,1.53712 3.2763,3.15729 4.6615,4.49194 0.29166,0.28102 0.5797,0.55013 0.86373,0.80028 1.96718,1.73252 5.02424,3.51866 5.95327,4.54023 0.34185,-1.45117 1.72653,-4.77049 0.76572,-8.34254 -0.12935,-0.48088 -0.29955,-0.97927 -0.50974,-1.489 -1.02543,-2.4868 -2.87639,-4.97478 -5.28498,-7.17875 -2.68729,-2.45898 -5.66482,-4.21984 -8.37203,-5.59286 -1.88738,-0.95722 -3.77325,-1.70384 -5.58988,-2.26866 -0.78441,-0.21993 -1.78279,-0.61277 -2.96709,-1.18992 -1.16552,-0.568 -2.46319,-1.29078 -3.85918,-2.1509 -1.23358,-0.76005 -2.53716,-1.62318 -3.88398,-2.57306 -1.50199,-1.05931 -3.14641,-2.26 -4.92508,-3.65178 -3.03785,-2.37706 -5.93017,-4.89474 -8.4174,-7.37104 -1.35684,-1.35088 -2.48624,-2.58339 -3.40843,-3.68391 -1.29608,-1.5467 -2.08684,-2.71867 -2.55068,-3.51034 z"
       id="path1628-5-5-9"
       sodipodi:nodetypes="csc"
       inkscape:original-d="m 118.14616,137.72399 c 3.60421,9.76969 19.7838,25.18327 28.445,28.37834 8.34356,3.07789 17.61452,9.25544 20.55775,20.62442"
       inkscape:path-effect="#path-effect2451-7-3-1" />
    <path
       style="display:inline;fill:#ffb380;fill-rule:nonzero;stroke:none;stroke-width:3.35571;stroke-linecap:round;stroke-linejoin:miter;stroke-miterlimit:4;stroke-dasharray:none;stroke-opacity:1"
       d="m 382.55059,130.63403 c -0.90446,0.16166 -2.31131,0.47772 -4.27627,1.25293 -1.39755,0.55135 -2.97961,1.29647 -4.74228,2.28211 -3.20445,1.79186 -6.57157,4.13831 -9.72547,6.74071 -1.8404,1.51859 -3.49504,3.0316 -4.89422,4.4371 -1.26786,1.27358 -2.44626,2.55199 -3.51197,3.80832 -1.20138,1.41625 -2.28046,2.829 -3.19344,4.20182 -0.91352,1.37364 -1.70648,2.77563 -2.28209,4.15517 -0.63075,1.42493 -1.336,2.90901 -2.12558,4.38189 -1.152,2.14894 -2.65993,4.25686 -4.419,6.2642 -1.53712,1.75407 -3.15729,3.2763 -4.49194,4.6615 -0.28102,0.29166 -0.55013,0.5797 -0.80027,0.86373 -1.73252,1.96718 -3.51866,5.02424 -4.54023,5.95327 1.45117,0.34185 4.77049,1.72653 8.34254,0.76572 0.48087,-0.12935 0.97927,-0.29955 1.489,-0.50974 2.48679,-1.02543 4.97477,-2.87639 7.17874,-5.28498 2.45898,-2.68729 4.21984,-5.66482 5.59286,-8.37203 0.95722,-1.88738 1.70384,-3.77325 2.26866,-5.58988 0.21993,-0.78441 0.61277,-1.78279 1.18992,-2.96709 0.568,-1.16552 1.29078,-2.46319 2.1509,-3.85918 0.76006,-1.23358 1.62318,-2.53716 2.57306,-3.88398 1.05932,-1.50199 2.26,-3.14641 3.65178,-4.92508 2.37707,-3.03785 4.89475,-5.93017 7.37105,-8.4174 1.35088,-1.35684 2.58339,-2.48624 3.68391,-3.40843 1.5467,-1.29608 2.71867,-2.08684 3.51034,-2.55068 z"
       id="path1628-5-5-9-7"
       sodipodi:nodetypes="csc"
       inkscape:original-d="m 382.55059,130.63403 c -9.76969,3.60421 -25.18328,19.7838 -28.37835,28.445 -3.07789,8.34356 -9.25544,17.61452 -20.62441,20.55775"
       inkscape:path-effect="#path-effect2451-7-3-1-6" />
    <path
       style="display:inline;fill:#ffb380;fill-rule:nonzero;stroke:none;stroke-width:3.35571;stroke-linecap:round;stroke-linejoin:miter;stroke-miterlimit:4;stroke-dasharray:none;stroke-opacity:1"
       d="m 381.64559,380.19594 c -0.16166,-0.90446 -0.47772,-2.31131 -1.25293,-4.27627 -0.55135,-1.39755 -1.29647,-2.97961 -2.28211,-4.74228 -1.79186,-3.20445 -4.13831,-6.57157 -6.74071,-9.72547 -1.51859,-1.8404 -3.0316,-3.49504 -4.4371,-4.89422 -1.27358,-1.26786 -2.55199,-2.44626 -3.80832,-3.51197 -1.41625,-1.20138 -2.829,-2.28046 -4.20182,-3.19344 -1.37364,-0.91352 -2.77563,-1.70648 -4.15517,-2.28209 -1.42493,-0.63075 -2.90901,-1.336 -4.38189,-2.12558 -2.14894,-1.152 -4.25686,-2.65993 -6.2642,-4.419 -1.75407,-1.53712 -3.2763,-3.15729 -4.6615,-4.49194 -0.29166,-0.28102 -0.5797,-0.55013 -0.86373,-0.80027 -1.96718,-1.73252 -5.02424,-3.51866 -5.95327,-4.54023 -0.34185,1.45117 -1.72653,4.77049 -0.76572,8.34254 0.12935,0.48087 0.29955,0.97927 0.50974,1.489 1.02543,2.48679 2.87639,4.97477 5.28498,7.17874 2.68729,2.45898 5.66482,4.21984 8.37203,5.59286 1.88738,0.95722 3.77325,1.70384 5.58988,2.26866 0.78441,0.21993 1.78279,0.61277 2.96709,1.18992 1.16552,0.568 2.46319,1.29078 3.85918,2.1509 1.23358,0.76006 2.53716,1.62318 3.88398,2.57306 1.50199,1.05932 3.14641,2.26 4.92508,3.65178 3.03785,2.37707 5.93017,4.89475 8.4174,7.37105 1.35684,1.35088 2.48624,2.58339 3.40843,3.68391 1.29608,1.5467 2.08684,2.71867 2.55068,3.51034 z"
       id="path1628-5-5-9-7-3"
       sodipodi:nodetypes="csc"
       inkscape:original-d="m 381.64559,380.19594 c -3.60421,-9.76969 -19.7838,-25.18328 -28.445,-28.37835 -8.34356,-3.07789 -17.61452,-9.25544 -20.55775,-20.62441"
       inkscape:path-effect="#path-effect2451-7-3-1-6-5" />
    <path
       style="display:inline;fill:#ffb380;fill-rule:nonzero;stroke:none;stroke-width:3.35571;stroke-linecap:round;stroke-linejoin:miter;stroke-miterlimit:4;stroke-dasharray:none;stroke-opacity:1"
       d="m 132.76441,385.96972 c 0.90446,-0.16166 2.31131,-0.47772 4.27627,-1.25293 1.39755,-0.55135 2.97961,-1.29647 4.74228,-2.28211 3.20445,-1.79186 6.57157,-4.13831 9.72547,-6.74071 1.8404,-1.51859 3.49504,-3.0316 4.89422,-4.4371 1.26786,-1.27358 2.44626,-2.55199 3.51197,-3.80832 1.20138,-1.41625 2.28046,-2.829 3.19344,-4.20182 0.91352,-1.37364 1.70648,-2.77563 2.28209,-4.15517 0.63075,-1.42493 1.336,-2.90901 2.12558,-4.38189 1.152,-2.14894 2.65993,-4.25686 4.419,-6.2642 1.53712,-1.75407 3.15729,-3.2763 4.49194,-4.6615 0.28102,-0.29166 0.55013,-0.5797 0.80027,-0.86373 1.73252,-1.96718 3.51866,-5.02424 4.54023,-5.95327 -1.45117,-0.34185 -4.77049,-1.72653 -8.34254,-0.76572 -0.48087,0.12935 -0.97927,0.29955 -1.489,0.50974 -2.48679,1.02543 -4.97477,2.87639 -7.17874,5.28498 -2.45898,2.68729 -4.21984,5.66482 -5.59286,8.37203 -0.95722,1.88738 -1.70384,3.77325 -2.26866,5.58988 -0.21993,0.78441 -0.61277,1.78279 -1.18992,2.96709 -0.568,1.16552 -1.29078,2.46319 -2.1509,3.85918 -0.76006,1.23358 -1.62318,2.53716 -2.57306,3.88398 -1.05932,1.50199 -2.26,3.14641 -3.65178,4.92508 -2.37707,3.03785 -4.89475,5.93017 -7.37105,8.4174 -1.35088,1.35684 -2.58339,2.48624 -3.68391,3.40843 -1.5467,1.29608 -2.71867,2.08684 -3.51034,2.55068 z"
       id="path1628-5-5-9-7-3-6"
       sodipodi:nodetypes="csc"
       inkscape:original-d="m 132.76441,385.96972 c 9.76969,-3.60421 25.18328,-19.7838 28.37835,-28.445 3.07789,-8.34356 9.25544,-17.61452 20.62441,-20.55775"
       inkscape:path-effect="#path-effect2451-7-3-1-6-5-5" />
  </g>
</svg>
