<?xml version="1.0" encoding="UTF-8" standalone="no"?>
<svg
   fill="hsl(200, 100%, 20%)"
   viewBox="0 0 576 512"
   version="1.1"
   id="svg34597"
   sodipodi:docname="cloud-showers-heavy.svg"
   xml:space="preserve"
   inkscape:version="1.2.2 (b0a8486, 2022-12-01)"
   xmlns:inkscape="http://www.inkscape.org/namespaces/inkscape"
   xmlns:sodipodi="http://sodipodi.sourceforge.net/DTD/sodipodi-0.dtd"
   xmlns="http://www.w3.org/2000/svg"
   xmlns:svg="http://www.w3.org/2000/svg"><defs
     id="defs34601"><filter
       inkscape:menu="Shadows and Glows"
       inkscape:menu-tooltip="In and out glow with a possible offset and colorizable flood"
       style="color-interpolation-filters:sRGB;"
       inkscape:label="Cutout Glow"
       id="filter2744"
       x="-0.37317678"
       y="-0.53310969"
       width="1.7557286"
       height="2.0796122"><feColorMatrix
         values="0 0 0 0 0 0 0 0 0 0 0 0 0 0 0 0.20999999999999999 0.71999999999999997 0.070000000000000007 0 0"
         result="result1"
         id="feColorMatrix2716" /><feColorMatrix
         values="1 0 0 0 0 0 1 0 0 0 0 0 1 0 0 0 0 0 2 0"
         result="result9"
         id="feColorMatrix2718" /><feComposite
         in2="result9"
         in="SourceGraphic"
         operator="in"
         result="result4"
         id="feComposite2720" /><feFlood
         result="result2"
         flood-color="rgb(0,0,0)"
         id="feFlood2722" /><feComposite
         in2="result9"
         operator="in"
         result="result10"
         id="feComposite2724" /><feComposite
         in2="result4"
         operator="atop"
         id="feComposite2726" /><feGaussianBlur
         stdDeviation="96.513813"
         result="result8"
         id="feGaussianBlur2728" /><feOffset
         dx="3"
         dy="3"
         result="result3"
         in="result8"
         id="feOffset2730" /><feFlood
         flood-opacity="1"
         flood-color="rgb(219,173,62)"
         result="result5"
         id="feFlood2732" /><feMerge
         result="result6"
         id="feMerge2740"><feMergeNode
           in="result5"
           id="feMergeNode2734" /><feMergeNode
           in="result3"
           id="feMergeNode2736" /><feMergeNode
           in="result4"
           id="feMergeNode2738" /></feMerge><feComposite
         in2="SourceGraphic"
         operator="in"
         result="fbSourceGraphic"
         id="feComposite2742" /><feColorMatrix
         result="fbSourceGraphicAlpha"
         in="fbSourceGraphic"
         values="0 0 0 -1 0 0 0 0 -1 0 0 0 0 -1 0 0 0 0 1 0"
         id="feColorMatrix2754" /><feOffset
         id="feOffset2756"
         dy="3"
         dx="3"
         in="fbSourceGraphic" /><feGaussianBlur
         id="feGaussianBlur2758"
         stdDeviation="3"
         result="blur" /><feFlood
         id="feFlood2760"
         flood-color="rgb(0,0,0)"
         flood-opacity="1"
         result="flood" /><feComposite
         in2="fbSourceGraphic"
         id="feComposite2762"
         in="flood"
         operator="in"
         result="composite" /><feBlend
         in2="composite"
         id="feBlend2764"
         in="blur"
         mode="normal" /></filter><filter
       inkscape:label="Metal Casting"
       inkscape:menu="Bevels"
       inkscape:menu-tooltip="Smooth drop-like bevel with metallic finish"
       style="color-interpolation-filters:sRGB;"
       id="filter1976"
       x="-0.026250002"
       y="-0.037500003"
       width="1.0525"
       height="1.075"
       inkscape:auto-region="false"><feColorMatrix
         type="saturate"
         in="SourceGraphic"
         result="result1"
         id="feColorMatrix1966"
         values="0.48883711132325436" /><feGaussianBlur
         stdDeviation="34.593613459346507"
         in="SourceAlpha"
         id="feGaussianBlur1968" /><feSpecularLighting
         specularExponent="8"
         specularConstant="3.9152500219178616"
         surfaceScale="3.2846649169921864"
         id="feSpecularLighting1972"><feDistantLight
           azimuth="58"
           elevation="17"
           id="feDistantLight1970" /></feSpecularLighting><feComposite
         in2="result1"
         operator="atop"
         id="feComposite1974" /></filter></defs><sodipodi:namedview
     id="namedview34599"
     pagecolor="#ffffff"
     bordercolor="#999999"
     borderopacity="1"
     inkscape:showpageshadow="0"
     inkscape:pageopacity="0"
     inkscape:pagecheckerboard="0"
     inkscape:deskcolor="#d1d1d1"
     showgrid="false"
     inkscape:zoom="0.21044922"
     inkscape:cx="-1157.0487"
     inkscape:cy="-237.58701"
     inkscape:window-width="1920"
     inkscape:window-height="1052"
     inkscape:window-x="0"
     inkscape:window-y="0"
     inkscape:window-maximized="1"
     inkscape:current-layer="svg34597" /><!--! Font Awesome Pro 6.2.1 by @fontawesome - https://fontawesome.com License - https://fontawesome.com/license (Commercial License) Copyright 2022 Fonticons, Inc. --><path
     d="M128 320c-53 0-96-43-96-96c0-42.5 27.6-78.6 65.9-91.2C96.7 126.1 96 119.1 96 112C96 50.1 146.1 0 208 0c43.1 0 80.5 24.3 99.2 60c14.7-17.1 36.5-28 60.8-28c44.2 0 80 35.8 80 80c0 5.5-.6 10.8-1.6 16c.5 0 1.1 0 1.6 0c53 0 96 43 96 96s-43 96-96 96H128zm-14.5 33.9c12.2 5.2 17.8 19.3 12.6 31.5l-48 112c-5.2 12.2-19.3 17.8-31.5 12.6s-17.8-19.3-12.6-31.5l48-112c5.2-12.2 19.3-17.8 31.5-12.6zm120 0c12.2 5.2 17.8 19.3 12.6 31.5l-48 112c-5.2 12.2-19.3 17.8-31.5 12.6s-17.8-19.3-12.6-31.5l48-112c5.2-12.2 19.3-17.8 31.5-12.6zm244.6 31.5l-48 112c-5.2 12.2-19.3 17.8-31.5 12.6s-17.8-19.3-12.6-31.5l48-112c5.2-12.2 19.3-17.8 31.5-12.6s17.8 19.3 12.6 31.5zM345.5 353.9c12.2 5.2 17.8 19.3 12.6 31.5l-48 112c-5.2 12.2-19.3 17.8-31.5 12.6s-17.8-19.3-12.6-31.5l48-112c5.2-12.2 19.3-17.8 31.5-12.6z"
     id="path34595"
     style="fill:#006464;fill-opacity:1;filter:url(#filter1976)" /></svg>
