<?xml version="1.0" encoding="UTF-8" standalone="no"?>
<svg
   fill="hsl(200, 100%, 20%)"
   viewBox="0 0 512 512"
   version="1.1"
   id="svg35775"
   sodipodi:docname="cloud-bolt.svg"
   xml:space="preserve"
   inkscape:version="1.2.2 (b0a8486, 2022-12-01)"
   xmlns:inkscape="http://www.inkscape.org/namespaces/inkscape"
   xmlns:sodipodi="http://sodipodi.sourceforge.net/DTD/sodipodi-0.dtd"
   xmlns="http://www.w3.org/2000/svg"
   xmlns:svg="http://www.w3.org/2000/svg"><defs
     id="defs35779"><filter
       inkscape:menu="Shadows and Glows"
       inkscape:menu-tooltip="In and out glow with a possible offset and colorizable flood"
       style="color-interpolation-filters:sRGB;"
       inkscape:label="Cutout Glow"
       id="filter2744"
       x="-0.46647098"
       y="-0.46652784"
       width="1.9446607"
       height="1.9447759"><feColorMatrix
         values="0 0 0 0 0 0 0 0 0 0 0 0 0 0 0 0.20999999999999999 0.71999999999999997 0.070000000000000007 0 0"
         result="result1"
         id="feColorMatrix2716" /><feColorMatrix
         values="1 0 0 0 0 0 1 0 0 0 0 0 1 0 0 0 0 0 2 0"
         result="result9"
         id="feColorMatrix2718" /><feComposite
         in2="result9"
         in="SourceGraphic"
         operator="in"
         result="result4"
         id="feComposite2720" /><feFlood
         result="result2"
         flood-color="rgb(0,0,0)"
         id="feFlood2722" /><feComposite
         in2="result9"
         operator="in"
         result="result10"
         id="feComposite2724" /><feComposite
         in2="result4"
         operator="atop"
         id="feComposite2726" /><feGaussianBlur
         stdDeviation="96.513813"
         result="result8"
         id="feGaussianBlur2728" /><feOffset
         dx="3"
         dy="3"
         result="result3"
         in="result8"
         id="feOffset2730" /><feFlood
         flood-opacity="1"
         flood-color="rgb(219,173,62)"
         result="result5"
         id="feFlood2732" /><feMerge
         result="result6"
         id="feMerge2740"><feMergeNode
           in="result5"
           id="feMergeNode2734" /><feMergeNode
           in="result3"
           id="feMergeNode2736" /><feMergeNode
           in="result4"
           id="feMergeNode2738" /></feMerge><feComposite
         in2="SourceGraphic"
         operator="in"
         result="fbSourceGraphic"
         id="feComposite2742" /><feColorMatrix
         result="fbSourceGraphicAlpha"
         in="fbSourceGraphic"
         values="0 0 0 -1 0 0 0 0 -1 0 0 0 0 -1 0 0 0 0 1 0"
         id="feColorMatrix2754" /><feOffset
         id="feOffset2756"
         dy="3"
         dx="3"
         in="fbSourceGraphic" /><feGaussianBlur
         id="feGaussianBlur2758"
         stdDeviation="3"
         result="blur" /><feFlood
         id="feFlood2760"
         flood-color="rgb(0,0,0)"
         flood-opacity="1"
         result="flood" /><feComposite
         in2="fbSourceGraphic"
         id="feComposite2762"
         in="flood"
         operator="in"
         result="composite" /><feBlend
         in2="composite"
         id="feBlend2764"
         in="blur"
         mode="normal" /></filter><filter
       inkscape:label="Metal Casting"
       inkscape:menu="Bevels"
       inkscape:menu-tooltip="Smooth drop-like bevel with metallic finish"
       style="color-interpolation-filters:sRGB;"
       id="filter1976"
       x="-0.026250002"
       y="-0.037500003"
       width="1.0525"
       height="1.075"
       inkscape:auto-region="false"><feColorMatrix
         type="saturate"
         in="SourceGraphic"
         result="result1"
         id="feColorMatrix1966"
         values="0.48883711132325436" /><feGaussianBlur
         stdDeviation="34.593613459346507"
         in="SourceAlpha"
         id="feGaussianBlur1968" /><feSpecularLighting
         specularExponent="8"
         specularConstant="3.9152500219178616"
         surfaceScale="3.2846649169921864"
         id="feSpecularLighting1972"><feDistantLight
           azimuth="58"
           elevation="17"
           id="feDistantLight1970" /></feSpecularLighting><feComposite
         in2="result1"
         operator="atop"
         id="feComposite1974" /></filter></defs><sodipodi:namedview
     id="namedview35777"
     pagecolor="#ffffff"
     bordercolor="#999999"
     borderopacity="1"
     inkscape:showpageshadow="0"
     inkscape:pageopacity="0"
     inkscape:pagecheckerboard="0"
     inkscape:deskcolor="#d1d1d1"
     showgrid="false"
     inkscape:zoom="0.42089844"
     inkscape:cx="184.12993"
     inkscape:cy="465.67053"
     inkscape:window-width="1920"
     inkscape:window-height="1052"
     inkscape:window-x="0"
     inkscape:window-y="0"
     inkscape:window-maximized="1"
     inkscape:current-layer="svg35775" /><!--! Font Awesome Pro 6.2.1 by @fontawesome - https://fontawesome.com License - https://fontawesome.com/license (Commercial License) Copyright 2022 Fonticons, Inc. --><path
     d="M0 224c0 53 43 96 96 96h47.2L290 202.5c17.6-14.1 42.6-14 60.2 .2s22.8 38.6 12.8 58.8L333.7 320H352h64c53 0 96-43 96-96s-43-96-96-96c-.5 0-1.1 0-1.6 0c1.1-5.2 1.6-10.5 1.6-16c0-44.2-35.8-80-80-80c-24.3 0-46.1 10.9-60.8 28C256.5 24.3 219.1 0 176 0C114.1 0 64 50.1 64 112c0 7.1 .7 14.1 1.9 20.8C27.6 145.4 0 181.5 0 224zm330.1 3.6c-5.8-4.7-14.2-4.7-20.1-.1l-160 128c-5.3 4.2-7.4 11.4-5.1 17.8s8.3 10.7 15.1 10.7h70.1L177.7 488.8c-3.4 6.7-1.6 14.9 4.3 19.6s14.2 4.7 20.1 .1l160-128c5.3-4.2 7.4-11.4 5.1-17.8s-8.3-10.7-15.1-10.7H281.9l52.4-104.8c3.4-6.7 1.6-14.9-4.2-19.6z"
     id="path35773"
     style="fill:#006464;fill-opacity:1;filter:url(#filter1976)" /></svg>
