<?xml version="1.0" encoding="UTF-8" standalone="no"?>
<svg
   fill="hsl(200, 100%, 20%)"
   viewBox="0 0 448 512"
   version="1.1"
   id="svg30697"
   sodipodi:docname="snowflake.svg"
   xml:space="preserve"
   inkscape:version="1.2.2 (b0a8486, 2022-12-01)"
   xmlns:inkscape="http://www.inkscape.org/namespaces/inkscape"
   xmlns:sodipodi="http://sodipodi.sourceforge.net/DTD/sodipodi-0.dtd"
   xmlns="http://www.w3.org/2000/svg"
   xmlns:svg="http://www.w3.org/2000/svg"><defs
     id="defs30701"><filter
       inkscape:menu="Shadows and Glows"
       inkscape:menu-tooltip="In and out glow with a possible offset and colorizable flood"
       style="color-interpolation-filters:sRGB;"
       inkscape:label="Cutout Glow"
       id="filter2744"
       x="-0.37317678"
       y="-0.53310969"
       width="1.7557286"
       height="2.0796122"><feColorMatrix
         values="0 0 0 0 0 0 0 0 0 0 0 0 0 0 0 0.20999999999999999 0.71999999999999997 0.070000000000000007 0 0"
         result="result1"
         id="feColorMatrix2716" /><feColorMatrix
         values="1 0 0 0 0 0 1 0 0 0 0 0 1 0 0 0 0 0 2 0"
         result="result9"
         id="feColorMatrix2718" /><feComposite
         in2="result9"
         in="SourceGraphic"
         operator="in"
         result="result4"
         id="feComposite2720" /><feFlood
         result="result2"
         flood-color="rgb(0,0,0)"
         id="feFlood2722" /><feComposite
         in2="result9"
         operator="in"
         result="result10"
         id="feComposite2724" /><feComposite
         in2="result4"
         operator="atop"
         id="feComposite2726" /><feGaussianBlur
         stdDeviation="96.513813"
         result="result8"
         id="feGaussianBlur2728" /><feOffset
         dx="3"
         dy="3"
         result="result3"
         in="result8"
         id="feOffset2730" /><feFlood
         flood-opacity="1"
         flood-color="rgb(219,173,62)"
         result="result5"
         id="feFlood2732" /><feMerge
         result="result6"
         id="feMerge2740"><feMergeNode
           in="result5"
           id="feMergeNode2734" /><feMergeNode
           in="result3"
           id="feMergeNode2736" /><feMergeNode
           in="result4"
           id="feMergeNode2738" /></feMerge><feComposite
         in2="SourceGraphic"
         operator="in"
         result="fbSourceGraphic"
         id="feComposite2742" /><feColorMatrix
         result="fbSourceGraphicAlpha"
         in="fbSourceGraphic"
         values="0 0 0 -1 0 0 0 0 -1 0 0 0 0 -1 0 0 0 0 1 0"
         id="feColorMatrix2754" /><feOffset
         id="feOffset2756"
         dy="3"
         dx="3"
         in="fbSourceGraphic" /><feGaussianBlur
         id="feGaussianBlur2758"
         stdDeviation="3"
         result="blur" /><feFlood
         id="feFlood2760"
         flood-color="rgb(0,0,0)"
         flood-opacity="1"
         result="flood" /><feComposite
         in2="fbSourceGraphic"
         id="feComposite2762"
         in="flood"
         operator="in"
         result="composite" /><feBlend
         in2="composite"
         id="feBlend2764"
         in="blur"
         mode="normal" /></filter><filter
       inkscape:label="Metal Casting"
       inkscape:menu="Bevels"
       inkscape:menu-tooltip="Smooth drop-like bevel with metallic finish"
       style="color-interpolation-filters:sRGB;"
       id="filter1976"
       x="-0.026250002"
       y="-0.037500003"
       width="1.0525"
       height="1.075"
       inkscape:auto-region="false"><feColorMatrix
         type="saturate"
         in="SourceGraphic"
         result="result1"
         id="feColorMatrix1966"
         values="0.48883711132325436" /><feGaussianBlur
         stdDeviation="34.593613459346507"
         in="SourceAlpha"
         id="feGaussianBlur1968" /><feSpecularLighting
         specularExponent="8"
         specularConstant="3.9152500219178616"
         surfaceScale="3.2846649169921864"
         id="feSpecularLighting1972"><feDistantLight
           azimuth="58"
           elevation="17"
           id="feDistantLight1970" /></feSpecularLighting><feComposite
         in2="result1"
         operator="atop"
         id="feComposite1974" /></filter></defs><sodipodi:namedview
     id="namedview30699"
     pagecolor="#ffffff"
     bordercolor="#999999"
     borderopacity="1"
     inkscape:showpageshadow="0"
     inkscape:pageopacity="0"
     inkscape:pagecheckerboard="0"
     inkscape:deskcolor="#d1d1d1"
     showgrid="false"
     inkscape:zoom="0.32"
     inkscape:cx="854.6875"
     inkscape:cy="896.875"
     inkscape:window-width="1920"
     inkscape:window-height="1052"
     inkscape:window-x="0"
     inkscape:window-y="0"
     inkscape:window-maximized="1"
     inkscape:current-layer="svg30697" /><!--! Font Awesome Pro 6.2.1 by @fontawesome - https://fontawesome.com License - https://fontawesome.com/license (Commercial License) Copyright 2022 Fonticons, Inc. --><path
     d="M224 0c17.7 0 32 14.3 32 32V62.1l15-15c9.4-9.4 24.6-9.4 33.9 0s9.4 24.6 0 33.9l-49 49v70.3l61.4-35.8 17.7-66.1c3.4-12.8 16.6-20.4 29.4-17s20.4 16.6 17 29.4l-5.2 19.3 23.6-13.8c15.3-8.9 34.9-3.7 43.8 11.5s3.7 34.9-11.5 43.8l-25.3 14.8 21.7 5.8c12.8 3.4 20.4 16.6 17 29.4s-16.6 20.4-29.4 17l-67.7-18.1L287.5 256l60.9 35.5 67.7-18.1c12.8-3.4 26 4.2 29.4 17s-4.2 26-17 29.4l-21.7 5.8 25.3 14.8c15.3 8.9 20.4 28.5 11.5 43.8s-28.5 20.4-43.8 11.5l-23.6-13.8 5.2 19.3c3.4 12.8-4.2 26-17 29.4s-26-4.2-29.4-17l-17.7-66.1L256 311.7v70.3l49 49c9.4 9.4 9.4 24.6 0 33.9s-24.6 9.4-33.9 0l-15-15V480c0 17.7-14.3 32-32 32s-32-14.3-32-32V449.9l-15 15c-9.4 9.4-24.6 9.4-33.9 0s-9.4-24.6 0-33.9l49-49V311.7l-61.4 35.8-17.7 66.1c-3.4 12.8-16.6 20.4-29.4 17s-20.4-16.6-17-29.4l5.2-19.3L48.1 395.6c-15.3 8.9-34.9 3.7-43.8-11.5s-3.7-34.9 11.5-43.8l25.3-14.8-21.7-5.8c-12.8-3.4-20.4-16.6-17-29.4s16.6-20.4 29.4-17l67.7 18.1L160.5 256 99.6 220.5 31.9 238.6c-12.8 3.4-26-4.2-29.4-17s4.2-26 17-29.4l21.7-5.8L15.9 171.6C.6 162.7-4.5 143.1 4.4 127.9s28.5-20.4 43.8-11.5l23.6 13.8-5.2-19.3c-3.4-12.8 4.2-26 17-29.4s26 4.2 29.4 17l17.7 66.1L192 200.3V129.9L143 81c-9.4-9.4-9.4-24.6 0-33.9s24.6-9.4 33.9 0l15 15V32c0-17.7 14.3-32 32-32z"
     id="path30695"
     style="fill:#0036ff;fill-opacity:1;filter:url(#filter1976)" /></svg>
